# Blender v2.82 (sub 7) OBJ File: 'numbers.blend'
# www.blender.org
v -0.125000 -0.187500 -0.000000
v -0.125000 -0.125000 -0.000000
v -0.125000 0.125000 0.000000
v -0.125000 0.187500 0.000000
v -0.062500 -0.250000 -0.000000
v -0.062500 -0.187500 -0.000000
v -0.062500 -0.125000 -0.000000
v -0.062500 0.125000 0.000000
v -0.062500 0.187500 0.000000
v -0.062500 0.250000 0.000000
v 0.000000 -0.250000 -0.000000
v 0.000000 -0.187500 -0.000000
v 0.000000 -0.062500 -0.000000
v 0.000000 0.000000 0.000000
v 0.000000 0.187500 0.000000
v 0.000000 0.250000 0.000000
v 0.062500 -0.250000 -0.000000
v 0.062500 -0.187500 -0.000000
v 0.062500 -0.125000 -0.000000
v 0.062500 -0.062500 -0.000000
v 0.062500 0.000000 0.000000
v 0.062500 0.062500 0.000000
v 0.062500 0.125000 0.000000
v 0.062500 0.187500 0.000000
v 0.062500 0.250000 0.000000
v 0.125000 -0.187500 -0.000000
v 0.125000 -0.125000 -0.000000
v 0.125000 -0.062500 -0.000000
v 0.125000 0.000000 0.000000
v 0.125000 0.062500 0.000000
v 0.125000 0.125000 0.000000
v 0.125000 0.187500 0.000000
vt 0.437500 0.312500
vt 0.375000 0.375000
vt 0.375000 0.312500
vt 0.437500 0.625000
vt 0.375000 0.687500
vt 0.375000 0.625000
vt 0.500000 0.250000
vt 0.437500 0.250000
vt 0.500000 0.687500
vt 0.437500 0.750000
vt 0.437500 0.687500
vt 0.562500 0.250000
vt 0.500000 0.312500
vt 0.562500 0.437500
vt 0.500000 0.500000
vt 0.500000 0.437500
vt 0.562500 0.687500
vt 0.500000 0.750000
vt 0.625000 0.312500
vt 0.562500 0.375000
vt 0.562500 0.312500
vt 0.625000 0.375000
vt 0.625000 0.500000
vt 0.562500 0.562500
vt 0.562500 0.500000
vt 0.625000 0.562500
vt 0.562500 0.625000
vt 0.625000 0.625000
vt 0.437500 0.375000
vt 0.562500 0.750000
vt 0.625000 0.437500
vt 0.625000 0.687500
vn 0.0000 -0.0000 1.0000
s off
f 6/1/1 2/2/1 1/3/1
f 8/4/1 4/5/1 3/6/1
f 11/7/1 6/1/1 5/8/1
f 15/9/1 10/10/1 9/11/1
f 17/12/1 12/13/1 11/7/1
f 20/14/1 14/15/1 13/16/1
f 24/17/1 16/18/1 15/9/1
f 26/19/1 19/20/1 18/21/1
f 27/22/1 20/14/1 19/20/1
f 29/23/1 22/24/1 21/25/1
f 30/26/1 23/27/1 22/24/1
f 31/28/1 24/17/1 23/27/1
f 6/1/1 7/29/1 2/2/1
f 8/4/1 9/11/1 4/5/1
f 11/7/1 12/13/1 6/1/1
f 15/9/1 16/18/1 10/10/1
f 17/12/1 18/21/1 12/13/1
f 20/14/1 21/25/1 14/15/1
f 24/17/1 25/30/1 16/18/1
f 26/19/1 27/22/1 19/20/1
f 27/22/1 28/31/1 20/14/1
f 29/23/1 30/26/1 22/24/1
f 30/26/1 31/28/1 23/27/1
f 31/28/1 32/32/1 24/17/1
