# Blender v2.82 (sub 7) OBJ File: 'cursor.blend'
# www.blender.org
v -0.500000 0.001000 0.500000
v 0.500000 0.001000 0.500000
v -0.500000 0.001000 -0.500000
v 0.500000 0.001000 -0.500000
v -0.312500 0.001000 0.500000
v 0.312500 0.001000 0.500000
v 0.312500 0.001000 -0.500000
v -0.312500 0.001000 -0.500000
v -0.500000 0.001000 -0.312500
v -0.500000 0.001000 0.312500
v 0.500000 0.001000 0.312500
v 0.500000 0.001000 -0.312500
v -0.437500 0.001000 0.437500
v -0.437500 0.001000 0.312500
v -0.437500 0.001000 -0.312500
v -0.437500 0.001000 -0.437500
v -0.312500 0.001000 0.437500
v -0.312500 0.001000 -0.437500
v 0.312500 0.001000 0.437500
v 0.312500 0.001000 -0.437500
v 0.437500 0.001000 0.437500
v 0.437500 0.001000 0.312500
v 0.437500 0.001000 -0.312500
v 0.437500 0.001000 -0.437500
vt 0.062500 0.062500
vt 0.000000 0.187500
vt 0.000000 0.000000
vt 0.062500 0.937500
vt 0.187500 1.000000
vt 0.000000 1.000000
vt 1.000000 0.187500
vt 0.937500 0.187500
vt 0.937500 0.062500
vt 0.812500 1.000000
vt 0.812500 0.937500
vt 0.937500 0.937500
vt 0.062500 0.187500
vt 0.187500 0.000000
vt 0.187500 0.062500
vt 0.187500 0.937500
vt 0.000000 0.812500
vt 0.062500 0.812500
vt 0.812500 0.062500
vt 0.812500 0.000000
vt 1.000000 0.000000
vt 0.937500 0.812500
vt 1.000000 0.812500
vt 1.000000 1.000000
vn 0.0000 1.0000 0.0000
s off
f 13/1/1 10/2/1 1/3/1
f 16/4/1 8/5/1 3/6/1
f 11/7/1 22/8/1 21/9/1
f 7/10/1 20/11/1 24/12/1
f 13/1/1 14/13/1 10/2/1
f 1/3/1 5/14/1 13/1/1
f 5/14/1 17/15/1 13/1/1
f 16/4/1 18/16/1 8/5/1
f 3/6/1 9/17/1 16/4/1
f 9/17/1 15/18/1 16/4/1
f 19/19/1 6/20/1 21/9/1
f 6/20/1 2/21/1 21/9/1
f 2/21/1 11/7/1 21/9/1
f 23/22/1 12/23/1 24/12/1
f 12/23/1 4/24/1 24/12/1
f 4/24/1 7/10/1 24/12/1
