# Blender v2.82 (sub 7) OBJ File: 'house1.blend'
# www.blender.org
v 0.026140 0.830856 0.500000
v -0.102707 0.967072 0.500000
v -0.322791 0.388738 0.500000
v -0.164920 0.287580 0.500000
v 0.001621 0.373722 0.500000
v 0.010291 0.561021 0.500000
v -0.147580 0.662179 0.500000
v -0.314121 0.576038 0.500000
v -0.033715 0.020460 0.500000
v -0.217889 -0.014699 0.500000
v -0.340424 0.127221 0.500000
v -0.094611 0.339459 0.500000
v -0.278785 0.304300 0.500000
v 0.027924 0.197538 0.500000
v -0.338640 0.743903 0.500000
v -0.209793 0.607687 0.500000
v -0.285097 0.923596 0.500000
v -0.027403 0.651164 0.500000
v 0.026140 0.830856 -0.500000
v -0.102707 0.967072 -0.500000
v -0.164920 0.287580 -0.500000
v 0.001621 0.373722 -0.500000
v 0.010291 0.561021 -0.500000
v -0.147580 0.662179 -0.500000
v -0.314121 0.576038 -0.500000
v -0.322791 0.388738 -0.500000
v 0.027924 0.197538 -0.500000
v -0.340424 0.127221 -0.500000
v -0.033715 0.020460 -0.500000
v -0.217889 -0.014699 -0.500000
v -0.094611 0.339459 -0.500000
v -0.278785 0.304300 -0.500000
v -0.209793 0.607687 -0.500000
v -0.027403 0.651164 -0.500000
v -0.338640 0.743903 -0.500000
v -0.285097 0.923596 -0.500000
v 0.000000 0.062500 -0.062500
v 0.375000 0.062500 -0.062500
v 0.000000 0.187500 -0.125000
v 0.375000 0.187500 -0.125000
v 0.375000 0.250000 -0.125000
v 0.375000 0.250000 -0.062500
v 0.000000 0.250000 -0.062500
v 0.000000 0.250000 -0.125000
v 0.312500 0.062500 -0.062500
v 0.062500 0.062500 -0.062500
v 0.375000 0.062500 -0.062500
v 0.000000 0.062500 -0.062500
v 0.312500 0.062500 -0.125000
v 0.062500 0.062500 -0.125000
v 0.375000 0.062500 -0.125000
v 0.000000 0.062500 -0.125000
v 0.312500 0.000000 -0.125000
v 0.375000 0.000000 -0.125000
v 0.000000 0.000000 -0.125000
v 0.062500 0.000000 -0.125000
v 0.375000 0.000000 -0.062500
v 0.312500 0.000000 -0.062500
v 0.062500 0.000000 -0.062500
v 0.000000 0.000000 -0.062500
v 0.000000 0.187500 -0.500000
v 0.375000 0.187500 -0.500000
v 0.000000 0.062500 -0.500000
v 0.375000 0.062500 -0.500000
v 0.250000 0.000000 0.250000
v 0.000000 0.000000 0.250000
v 0.250000 0.187500 0.250000
v 0.000000 0.187500 0.250000
v 0.187500 0.187500 0.312500
v 0.062500 0.187500 0.312500
v 0.187500 0.125000 0.312500
v 0.062500 0.130493 0.312500
v 0.125000 0.135598 0.312500
v 0.187500 0.139672 0.500000
v 0.187500 0.133514 0.437500
v 0.187500 0.140900 0.375000
v 0.062500 0.133865 0.375000
v 0.062500 0.111251 0.437500
v 0.062500 0.125000 0.500000
v 0.125000 0.125000 0.375000
v 0.125000 0.119488 0.437500
v 0.125000 0.125000 0.500000
v 0.000000 0.000000 0.500000
v 0.000000 0.187500 0.500000
v 0.062500 0.187500 0.500000
v 0.250000 0.000000 0.500000
v 0.250000 0.187500 0.500000
v 0.187500 0.187500 0.500000
v 0.250000 0.187500 0.250000
v 0.000000 0.187500 0.250000
v 0.187500 0.250000 0.250000
v 0.062500 0.250000 0.250000
v 0.250000 0.187500 0.500000
v 0.000000 0.187500 0.500000
v 0.187500 0.250000 0.500000
v 0.062500 0.250000 0.500000
v 0.500000 1.427832 0.500000
v -0.443029 0.811205 0.500000
v -0.474279 0.865332 0.500000
v 0.500000 1.355663 0.500000
v 0.500000 1.427832 -0.500000
v -0.443029 0.811205 -0.500000
v 0.500000 1.355663 -0.500000
v -0.474279 0.865332 -0.500000
v -0.474279 0.865332 0.000000
v 0.500000 1.427832 0.000000
vt 0.625589 0.311554
vt 0.362800 0.262282
vt 0.625588 0.262281
vt 0.625589 0.508645
vt 0.362800 0.459372
vt 0.625589 0.459373
vt 0.625589 0.557918
vt 0.362800 0.508645
vt 0.625589 0.360827
vt 0.362800 0.311554
vt 0.206510 0.338893
vt 0.484984 0.391107
vt 0.206510 0.391107
vt 0.278265 0.509434
vt 0.539191 0.558357
vt 0.278266 0.558358
vt 0.484984 0.443321
vt 0.206510 0.443321
vt 0.278265 0.362663
vt 0.539191 0.411587
vt 0.278265 0.411587
vt 0.206511 0.547748
vt 0.484984 0.495534
vt 0.484984 0.547748
vt 0.278265 0.460511
vt 0.539191 0.509434
vt 0.539191 0.460510
vt 0.206510 0.495535
vt 0.206510 0.234466
vt 0.484984 0.286680
vt 0.206510 0.286680
vt 0.484984 0.338894
vt 0.278265 0.313740
vt 0.539191 0.264817
vt 0.539191 0.313740
vt 0.625589 0.410100
vt 0.362800 0.360827
vt 0.539191 0.362664
vt 0.362800 0.410100
vt 0.541419 0.102300
vt 0.647233 0.102300
vt 0.594326 0.193938
vt 0.647371 0.101622
vt 0.647371 0.162713
vt 0.594464 0.193259
vt 0.647600 0.102270
vt 0.594693 0.193908
vt 0.541786 0.102270
vt 0.237405 0.880238
vt 0.242583 0.889411
vt 0.239205 0.891891
vt 0.243477 0.885254
vt 0.243367 0.889498
vt 0.244053 0.892233
vt 0.244451 0.885326
vt 0.246399 0.880752
vt 0.326482 0.957208
vt 0.301528 0.979201
vt 0.323673 0.959014
vt 0.300073 0.780154
vt 0.277854 0.799737
vt 0.297572 0.781763
vt 0.298244 0.777787
vt 0.317962 0.800800
vt 0.321619 0.956356
vt 0.346573 0.934363
vt 0.324428 0.954550
vt 0.346573 0.980395
vt 0.301528 0.933169
vt 0.295743 0.779396
vt 0.317962 0.759813
vt 0.277854 0.758750
vt 0.237833 0.867582
vt 0.252509 0.865785
vt 0.296860 0.876485
vt 0.306619 0.863224
vt 0.300316 0.877055
vt 0.360947 0.806895
vt 0.302024 0.856989
vt 0.258674 0.824148
vt 0.274590 0.906616
vt 0.319386 0.864563
vt 0.325366 0.858414
vt 0.323500 0.877234
vt 0.317303 0.876975
vt 0.317206 0.871911
vt 0.316180 0.868207
vt 0.312729 0.867520
vt 0.312415 0.872112
vt 0.309654 0.868038
vt 0.307594 0.870939
vt 0.305869 0.875927
vt 0.311177 0.886428
vt 0.301786 0.881850
vt 0.311819 0.877636
vt 0.321460 0.883618
vt 0.360947 0.910904
vt 0.325942 0.876932
vt 0.000000 0.000000
vt 0.000000 0.000000
vt 0.000000 0.000000
vt 0.000000 0.000000
vt 0.000000 0.000000
vt 0.000000 0.000000
vt 0.000000 0.000000
vt 0.000000 0.000000
vt 0.608540 0.216317
vt 0.292073 0.560923
vt 0.292073 0.216317
vt 0.979365 0.366821
vt 0.999729 0.366821
vt 0.999729 0.529732
vt 0.153027 -0.002092
vt -0.000853 0.344138
vt -0.000853 -0.002092
vt 0.979365 0.012028
vt 0.999729 0.000271
vt 0.186952 -0.003476
vt 0.032444 0.344165
vt 0.032444 -0.003476
vt 0.362800 0.557918
vt 0.484984 0.234466
vt 0.278265 0.264816
vt 0.541419 0.163392
vt 0.594326 0.071754
vt 0.647233 0.163392
vt 0.541557 0.162713
vt 0.541557 0.101622
vt 0.594464 0.071076
vt 0.594693 0.071724
vt 0.647600 0.163362
vt 0.541786 0.163362
vt 0.252509 0.972193
vt 0.211419 0.956207
vt 0.608540 0.560923
vt 0.999729 0.692644
vt 0.979365 0.692644
vt 0.153027 0.344138
vt 0.186952 0.344165
vn -0.7569 -0.6535 0.0000
vn 0.9444 -0.3287 0.0000
vn 0.1875 -0.9823 0.0000
vn -0.9444 0.3287 0.0000
vn 0.7265 0.6872 0.0000
vn -0.5395 -0.8420 0.0000
vn -0.2319 0.9727 0.0000
vn 0.5395 0.8420 0.0000
vn -0.7265 -0.6872 0.0000
vn -0.9989 0.0462 0.0000
vn -0.4594 0.8882 0.0000
vn -0.9584 0.2856 0.0000
vn 0.2319 -0.9727 0.0000
vn 0.9584 -0.2856 0.0000
vn 0.4594 -0.8882 0.0000
vn -0.1875 0.9823 0.0000
vn 0.9989 -0.0462 0.0000
vn 0.7569 0.6535 0.0000
vn -0.0000 -0.0000 1.0000
vn 0.0000 1.0000 0.0000
vn 0.0000 0.0000 -1.0000
vn 1.0000 0.0000 0.0000
vn -1.0000 0.0000 0.0000
vn 0.0000 -1.0000 0.0000
vn 0.1385 0.9764 0.1656
vn -0.2394 0.9410 -0.2394
vn -0.2275 0.9691 -0.0955
vn -0.2182 0.9721 0.0857
vn 0.0000 0.9961 -0.0879
vn -0.1302 0.9877 0.0871
vn -0.7071 0.7071 0.0000
vn 0.7071 0.7071 0.0000
vn 0.5000 -0.8660 0.0000
vn -0.8660 -0.5000 0.0000
vn -0.5000 0.8660 0.0000
vn -0.0813 0.9952 -0.0537
vn 0.1649 0.9724 0.1649
vn -0.2182 0.9721 -0.0857
vn -0.2449 0.9628 0.1138
vn -0.1277 0.9687 -0.2131
vn 0.1322 0.9321 0.3373
s off
f 11/1/1 30/2/1 10/3/1
f 9/4/2 27/5/2 14/6/2
f 10/7/3 29/8/3 9/4/3
f 13/9/4 28/10/4 11/1/4
f 1/11/5 20/12/5 2/13/5
f 3/14/6 21/15/6 4/16/6
f 2/13/7 36/17/7 17/18/7
f 6/19/8 24/20/8 7/21/8
f 16/22/9 35/23/9 33/24/9
f 8/25/10 26/26/10 3/14/10
f 8/25/11 24/20/11 25/27/11
f 17/18/12 35/23/12 15/28/12
f 16/29/13 34/30/13 18/31/13
f 18/31/14 19/32/14 1/11/14
f 5/33/15 21/34/15 22/35/15
f 12/36/16 32/37/16 13/9/16
f 5/33/17 23/38/17 6/19/17
f 14/6/18 31/39/18 12/36/18
f 1/40/19 17/41/19 16/42/19
f 6/43/19 7/44/19 8/45/19
f 9/46/19 12/47/19 11/48/19
f 38/49/19 43/50/19 37/51/19
f 42/52/20 44/53/20 43/50/20
f 39/54/21 41/55/21 40/56/21
f 38/49/22 40/56/22 42/52/22
f 52/57/23 60/58/23 48/59/23
f 49/60/23 58/61/23 45/62/23
f 51/63/21 53/64/21 49/60/21
f 46/65/22 56/66/22 50/67/22
f 50/67/21 55/68/21 52/57/21
f 48/59/19 59/69/19 46/65/19
f 47/70/22 54/71/22 51/63/22
f 45/62/19 57/72/19 47/70/19
f 40/56/20 61/73/20 39/54/20
f 39/54/23 63/74/23 37/51/23
f 63/74/24 38/49/24 37/51/24
f 87/75/20 69/76/20 88/77/20
f 66/78/21 67/79/21 65/80/21
f 65/80/22 87/75/22 86/81/22
f 70/82/20 67/79/20 68/83/20
f 85/84/22 78/85/22 77/86/22
f 70/82/19 72/87/19 73/88/19
f 73/88/25 77/86/25 80/89/25
f 71/90/26 80/89/26 76/91/26
f 75/92/27 82/93/27 74/94/27
f 75/92/28 80/89/28 81/95/28
f 81/95/29 79/96/29 82/93/29
f 80/89/30 78/85/30 81/95/30
f 83/97/23 68/83/23 66/78/23
f 84/98/20 70/82/20 68/83/20
f 76/91/23 75/92/23 88/77/23
f 82/93/19 83/97/19 86/81/19
f 96/99/31 90/100/31 94/101/31
f 92/102/21 89/103/21 90/100/21
f 91/104/32 93/105/32 89/103/32
f 92/102/20 95/106/20 91/104/20
f 93/105/24 90/100/24 89/103/24
f 95/106/19 94/101/19 93/105/19
f 102/107/33 100/108/33 98/109/33
f 98/110/34 99/111/34 105/112/34
f 99/113/35 106/114/35 105/115/35
f 99/111/19 100/116/19 97/117/19
f 105/118/35 101/119/35 104/120/35
f 11/1/1 28/10/1 30/2/1
f 9/4/2 29/8/2 27/5/2
f 10/7/3 30/121/3 29/8/3
f 13/9/4 32/37/4 28/10/4
f 1/11/5 19/32/5 20/12/5
f 3/14/6 26/26/6 21/15/6
f 2/13/7 20/12/7 36/17/7
f 6/19/8 23/38/8 24/20/8
f 16/22/9 15/28/9 35/23/9
f 8/25/10 25/27/10 26/26/10
f 8/25/11 7/21/11 24/20/11
f 17/18/12 36/17/12 35/23/12
f 16/29/13 33/122/13 34/30/13
f 18/31/14 34/30/14 19/32/14
f 5/33/15 4/123/15 21/34/15
f 12/36/16 31/39/16 32/37/16
f 5/33/17 22/35/17 23/38/17
f 14/6/18 27/5/18 31/39/18
f 16/42/19 18/124/19 1/40/19
f 1/40/19 2/125/19 17/41/19
f 17/41/19 15/126/19 16/42/19
f 8/45/19 3/127/19 4/128/19
f 4/128/19 5/129/19 8/45/19
f 5/129/19 6/43/19 8/45/19
f 11/48/19 10/130/19 9/46/19
f 9/46/19 14/131/19 12/47/19
f 12/47/19 13/132/19 11/48/19
f 38/49/19 42/52/19 43/50/19
f 42/52/20 41/55/20 44/53/20
f 39/54/21 44/53/21 41/55/21
f 38/49/22 64/133/22 40/56/22
f 64/133/22 62/134/22 40/56/22
f 40/56/22 41/55/22 42/52/22
f 52/57/23 55/68/23 60/58/23
f 49/60/23 53/64/23 58/61/23
f 51/63/21 54/71/21 53/64/21
f 46/65/22 59/69/22 56/66/22
f 50/67/21 56/66/21 55/68/21
f 48/59/19 60/58/19 59/69/19
f 47/70/22 57/72/22 54/71/22
f 45/62/19 58/61/19 57/72/19
f 40/56/20 62/134/20 61/73/20
f 39/54/23 61/73/23 63/74/23
f 37/51/23 43/50/23 39/54/23
f 43/50/23 44/53/23 39/54/23
f 63/74/24 64/133/24 38/49/24
f 87/75/20 67/79/20 69/76/20
f 66/78/21 68/83/21 67/79/21
f 65/80/22 67/79/22 87/75/22
f 70/82/20 69/76/20 67/79/20
f 72/87/22 70/82/22 77/86/22
f 70/82/22 85/84/22 77/86/22
f 85/84/22 79/96/22 78/85/22
f 71/90/19 69/76/19 73/88/19
f 69/76/19 70/82/19 73/88/19
f 73/88/36 72/87/36 77/86/36
f 71/90/37 73/88/37 80/89/37
f 75/92/38 81/95/38 82/93/38
f 75/92/39 76/91/39 80/89/39
f 81/95/40 78/85/40 79/96/40
f 80/89/41 77/86/41 78/85/41
f 83/97/23 84/98/23 68/83/23
f 84/98/20 85/84/20 70/82/20
f 75/92/23 74/94/23 88/77/23
f 88/77/23 69/76/23 76/91/23
f 69/76/23 71/90/23 76/91/23
f 79/96/19 85/84/19 84/98/19
f 86/81/19 87/75/19 74/94/19
f 87/75/19 88/77/19 74/94/19
f 79/96/19 84/98/19 83/97/19
f 86/81/19 74/94/19 82/93/19
f 82/93/19 79/96/19 83/97/19
f 96/99/31 92/102/31 90/100/31
f 92/102/21 91/104/21 89/103/21
f 91/104/32 95/106/32 93/105/32
f 92/102/20 96/99/20 95/106/20
f 93/105/24 94/101/24 90/100/24
f 95/106/19 96/99/19 94/101/19
f 102/107/33 103/135/33 100/108/33
f 104/136/34 102/137/34 105/112/34
f 102/137/34 98/110/34 105/112/34
f 99/113/35 97/138/35 106/114/35
f 99/111/19 98/110/19 100/116/19
f 105/118/35 106/139/35 101/119/35
