# Blender v2.82 (sub 7) OBJ File: 'house1.blend'
# www.blender.org
v -0.187500 0.000000 0.250000
v -0.187500 0.937500 0.250000
v -0.187500 0.000000 -0.187500
v -0.187500 0.937500 -0.187500
v -0.250000 0.000000 0.250000
v -0.250000 0.875000 0.250000
v -0.250000 0.000000 0.187500
v -0.250000 0.875000 0.187500
v -0.250000 0.000000 -0.187500
v -0.250000 0.875000 -0.187500
v -0.250000 0.875000 -0.125000
v -0.250000 0.000000 -0.125000
v -0.500000 0.937500 -0.187500
v -0.500000 0.888063 -0.187500
v -0.500000 0.875000 -0.187500
v -0.500000 0.937500 0.250000
v -0.500000 0.875000 0.250000
v -0.500000 0.000000 0.187500
v -0.500000 0.875000 0.187500
v -0.500000 0.875000 -0.125000
v -0.500000 0.000000 -0.125000
v -0.030308 0.768612 0.238070
v 0.265783 0.635200 0.238070
v 0.342808 0.806149 0.238070
v 0.046717 0.939560 0.238070
v 0.233275 0.958329 0.238070
v 0.079225 0.616432 0.238070
v 0.114889 0.345261 0.229521
v 0.018551 0.035120 0.229521
v 0.197611 -0.020501 0.229521
v 0.293949 0.289641 0.229521
v 0.335310 0.106759 0.229521
v -0.022810 0.218001 0.229521
v 0.020886 0.604621 0.250001
v 0.111573 0.292781 0.250001
v 0.291615 0.345139 0.250001
v 0.200927 0.656980 0.250001
v 0.336291 0.527239 0.250001
v -0.023791 0.422522 0.250001
v 0.335310 0.106759 -0.500000
v 0.197611 -0.020501 -0.500000
v -0.022810 0.218001 -0.500000
v 0.233275 0.958329 -0.500000
v -0.030308 0.768612 -0.500000
v 0.046717 0.939560 -0.500000
v 0.342808 0.806149 -0.500000
v 0.079225 0.616432 -0.500000
v 0.265783 0.635200 -0.500000
v 0.293949 0.289641 -0.500000
v 0.114889 0.345261 -0.500000
v 0.200927 0.656980 -0.500000
v 0.336291 0.527239 -0.500000
v 0.111573 0.292781 -0.500000
v 0.291615 0.345139 -0.500000
v -0.023791 0.422522 -0.500000
v 0.020886 0.604621 -0.500000
v 0.018551 0.035120 -0.500000
v 0.187500 0.920565 0.163228
v 0.187500 0.606492 0.080603
v 0.187500 0.654195 -0.100728
v 0.187500 0.739677 0.212580
v 0.187500 0.968269 -0.018103
v 0.187500 0.835084 -0.150080
v 0.187500 0.279749 0.177472
v 0.187500 -0.022936 0.059783
v 0.187500 0.045012 -0.114972
v 0.187500 0.094432 0.206005
v 0.187500 0.347697 0.002717
v 0.187500 0.230328 -0.143505
v 0.187500 0.651924 -0.030490
v 0.187500 0.439827 0.215444
v 0.187500 0.297837 0.092990
v 0.187500 0.616871 0.153704
v 0.187500 0.509933 -0.152944
v 0.187500 0.332890 -0.091204
v -0.187500 0.937501 0.098852
v -0.187500 0.937501 -0.048592
v -0.187500 0.920565 0.163228
v -0.187500 0.739677 0.212580
v -0.187500 0.606492 0.080603
v -0.187500 0.439827 0.215444
v -0.187500 0.094432 0.206005
v -0.187500 0.297837 0.092990
v -0.187500 0.616871 0.153704
v -0.187500 0.651924 -0.030490
v -0.187500 0.279749 0.177472
v -0.187500 0.835084 -0.150080
v -0.187500 0.654195 -0.100728
v -0.187500 0.045012 -0.114972
v -0.187500 0.230328 -0.143505
v -0.187500 0.509933 -0.152944
v -0.187500 0.332890 -0.091204
v -0.187500 0.347697 0.002717
v -0.187500 -0.022936 0.059783
v 0.187500 0.912498 0.024608
v 0.115269 1.000437 0.190207
v -0.209287 1.187819 0.196849
v 0.187500 0.958735 -0.049300
v 0.095343 1.011941 -0.134349
v -0.381527 1.287263 0.037892
v 0.187500 0.958735 0.111676
v -0.229212 1.199324 -0.127707
v -0.500000 0.968269 -0.018103
v -0.500000 0.937501 -0.048592
v -0.500000 0.912498 0.024608
v -0.500000 1.000437 0.190207
v -0.500000 1.187819 0.196849
v -0.500000 1.199324 -0.127707
v -0.500000 1.011941 -0.134349
v -0.500000 0.937501 0.098852
v -0.500000 1.287263 0.037892
v -0.500000 1.355663 0.187500
v -0.500000 1.500000 0.312500
v -0.500000 1.500000 0.187500
v -0.500000 1.355663 0.312500
v 0.465905 0.797997 0.187500
v 0.528405 0.906250 0.187500
v 0.465905 0.797997 0.312500
v 0.528405 0.906250 0.312500
v -0.500000 1.427832 0.187500
v 0.420152 0.896582 0.187500
v 0.388902 0.842455 0.187500
v 0.474279 0.865332 0.187500
v 0.443029 0.811205 0.187500
v -0.500000 1.427832 -0.500000
v 0.443029 0.811205 -0.500000
v 0.474279 0.865332 -0.500000
v -0.500000 1.355663 -0.500000
vt 1.000000 0.000000
vt 1.000000 1.000000
vt 1.000000 0.000000
vt 1.000000 1.000000
vt 0.500000 1.000000
vt 0.500000 1.000000
vt 1.000000 1.000000
vt 1.000000 0.000000
vt 0.500000 1.000000
vt 1.000000 1.000000
vt 0.000000 0.000000
vt 0.000000 1.000000
vt 0.000000 1.000000
vt 0.500000 1.000000
vt 0.000000 0.000000
vt 0.500000 1.000000
vt 0.000000 1.000000
vt 0.000000 0.000000
vt 0.500000 0.000000
vt 0.500000 1.000000
vt 0.500000 1.000000
vt 0.338958 0.641621
vt 0.268642 0.641621
vt 0.353022 0.667253
vt 1.000000 0.000000
vt 0.000000 0.295228
vt 0.000000 0.000000
vt 0.000000 0.000000
vt 1.000000 0.295228
vt 1.000000 0.000000
vt 1.000000 0.000000
vt 0.000000 0.295228
vt 0.000000 0.000000
vt 0.000000 0.295228
vt 0.000000 0.000000
vt 0.000000 0.295228
vt 1.000000 0.000000
vt 0.000000 0.000000
vt 1.000000 0.000000
vt 0.000000 0.295228
vt 1.000000 0.000000
vt 0.000000 0.291808
vt 0.000000 0.000000
vt 0.000000 0.291808
vt 1.000000 0.000000
vt 0.000000 0.000000
vt 1.000000 0.000000
vt 0.000000 0.291808
vt 0.000000 0.000000
vt 0.000000 0.291808
vt 0.000000 0.000000
vt 0.000000 0.291808
vt 1.000000 0.000000
vt 0.000000 0.000000
vt 1.000000 0.000000
vt 1.000000 0.000000
vt 0.000000 0.300000
vt 0.000000 0.000000
vt 0.000000 0.300000
vt 1.000000 0.000000
vt 0.000000 0.000000
vt 1.000000 0.000000
vt 0.000000 0.300000
vt 0.000000 0.000000
vt 0.000000 0.300000
vt 0.000000 0.000000
vt 0.000000 0.300000
vt 1.000000 0.000000
vt 0.000000 0.000000
vt 1.000000 0.000000
vt 1.000000 0.291808
vt 1.000000 0.300000
vt 1.000000 0.300000
vt 1.000000 0.295228
vt 1.000000 0.727273
vt 0.000000 1.000000
vt 0.000000 0.727273
vt 0.000000 1.000000
vt 1.000000 0.727273
vt 0.000000 0.727273
vt 0.000000 0.727273
vt 1.000000 1.000000
vt 1.000000 0.727273
vt 1.000000 1.000000
vt 0.000000 0.727273
vt 1.000000 0.727273
vt 0.000000 1.000000
vt 1.000000 0.727273
vt 0.000000 0.727273
vt 1.000000 0.727273
vt 0.000000 1.000000
vt 0.000000 0.727273
vt 1.000000 1.000000
vt 0.000000 0.727273
vt 1.000000 0.727273
vt 0.000000 1.000000
vt 1.000000 0.727273
vt 0.000000 0.727273
vt 1.000000 0.727273
vt 1.000000 1.000000
vt 0.000000 0.727273
vt 1.000000 0.727273
vt 0.000000 0.727273
vt 1.000000 1.000000
vt 1.000000 0.727273
vt 0.000000 0.727273
vt 1.000000 1.000000
vt 0.000000 0.727273
vt 1.000000 0.727273
vt 1.000000 1.000000
vt 1.000000 0.727273
vt 0.000000 0.727273
vt 1.000000 1.000000
vt 0.000000 1.000000
vt 1.000000 0.727273
vt 0.000000 0.696936
vt 1.000000 0.586162
vt 0.000000 0.696936
vt 0.000000 0.932977
vt 1.000000 0.696936
vt 0.000000 0.932977
vt 1.000000 0.711428
vt 0.000000 0.947469
vt 0.000000 0.947469
vt 0.000000 1.000000
vt 1.000000 0.932977
vt 1.000000 0.932977
vt 1.000000 1.000000
vt 1.000000 0.500000
vt 0.355017 0.727273
vt 1.000000 0.711428
vt 1.000000 0.586162
vt 0.000000 1.000000
vt 0.000000 0.727273
vt 0.768983 0.727273
vt 1.000000 0.000000
vt 1.000000 1.000000
vt 1.000000 1.000000
vt 0.000000 1.000000
vt 0.000000 1.000000
vt 0.000000 0.000000
vt 1.000000 0.000000
vt 0.000000 0.000000
vt 0.000000 0.289474
vt 0.000000 0.000000
vt 0.966038 0.289474
vt 0.000000 0.000000
vt 0.000000 0.000000
vt 0.268642 0.528361
vt 0.240516 0.587554
vt 0.268642 0.587554
vt 1.000000 0.000000
vt 1.000000 0.289474
vt 0.899556 0.319263
vt 0.500000 0.520350
vt 0.500000 0.549947
vt 0.000000 0.289474
vt 1.000000 0.000000
vt 0.500000 0.000000
vt 0.353022 0.646978
vt 0.353022 0.641621
vt 0.338958 0.282780
vt 0.268642 0.282780
vt 0.254579 0.641621
vt 0.254579 0.667253
vt 1.000000 0.295228
vt 1.000000 0.295228
vt 1.000000 0.295228
vt 1.000000 0.291808
vt 1.000000 0.291808
vt 1.000000 0.291808
vt 1.000000 0.291808
vt 1.000000 0.300000
vt 1.000000 0.300000
vt 1.000000 0.300000
vt 1.000000 1.000000
vt 1.000000 1.000000
vt 0.000000 1.000000
vt 0.000000 1.000000
vt 1.000000 1.000000
vt 0.000000 1.000000
vt 1.000000 1.000000
vt 1.000000 1.000000
vt 0.000000 1.000000
vt 0.000000 1.000000
vt 0.000000 1.000000
vt 0.000000 1.000000
vt 1.000000 1.000000
vt 1.000000 0.696936
vt 0.464955 1.000000
vt 0.000000 1.000000
vt 0.000000 0.000000
vt 0.355017 0.500000
vt 0.000000 0.727273
vt 0.000000 1.000000
vt 0.768983 0.500000
vt 0.966038 0.000000
vt 0.000000 0.000000
vt 0.240516 0.528361
vt 0.886740 0.297066
vn 0.0000 0.0000 1.0000
vn 0.0000 1.0000 -0.0000
vn 1.0000 0.0000 0.0000
vn -1.0000 0.0000 0.0000
vn 0.0000 -1.0000 0.0000
vn -0.0000 0.0000 -1.0000
vn -0.9117 0.4108 0.0000
vn 0.9117 -0.4108 0.0000
vn -0.8116 -0.5842 0.0000
vn -0.1001 0.9950 0.0000
vn 0.8116 0.5842 0.0000
vn 0.1001 -0.9950 0.0000
vn 0.2966 0.9550 0.0000
vn -0.2966 -0.9550 0.0000
vn -0.6787 0.7344 0.0000
vn 0.9754 0.2206 0.0000
vn 0.6787 -0.7344 0.0000
vn -0.9754 -0.2206 0.0000
vn -0.2792 0.9602 0.0000
vn 0.2792 -0.9602 0.0000
vn -0.9712 0.2383 0.0000
vn 0.6920 0.7219 0.0000
vn 0.9712 -0.2383 0.0000
vn -0.6920 -0.7219 0.0000
vn 0.0000 -0.9671 -0.2544
vn 0.0000 0.9824 0.1869
vn 0.0000 0.2632 0.9647
vn 0.0000 -0.2632 -0.9647
vn 0.0000 -0.7799 0.6260
vn 0.0000 0.7799 -0.6260
vn 0.0000 -0.9824 -0.1869
vn 0.0000 0.1522 0.9884
vn 0.0000 -0.7039 0.7103
vn 0.0000 -0.6531 0.7573
vn 0.0000 0.6531 -0.7573
vn 0.0000 -0.3293 -0.9442
vn 0.0000 -0.1522 -0.9884
vn 0.0000 -0.9320 -0.3624
vn 0.0000 0.9320 0.3624
vn -0.0000 0.3293 0.9442
vn 0.0000 0.8832 -0.4690
vn 0.0000 0.0354 -0.9994
vn 0.0000 -0.0354 0.9994
vn 0.0000 -0.8478 -0.5304
vn 0.0000 -0.8832 0.4690
vn 0.0000 0.9671 0.2544
vn 0.0000 0.8478 0.5304
vn 0.0000 0.7039 -0.7103
vn 0.5000 0.8660 0.0000
vn -0.5000 -0.8660 0.0000
vn 0.8660 -0.5000 0.0000
s off
f 1/1/1 6/2/1 5/3/1
f 2/4/2 13/5/2 16/6/2
f 1/1/3 4/7/3 2/4/3
f 6/2/4 7/8/4 5/3/4
f 17/9/5 8/10/5 6/2/5
f 3/11/6 10/12/6 4/13/6
f 13/5/6 10/12/6 14/14/6
f 12/15/6 20/16/6 11/17/6
f 9/18/4 11/17/4 10/12/4
f 7/8/5 12/15/5 3/11/5
f 18/19/1 8/10/1 19/20/1
f 15/21/5 11/17/5 20/16/5
f 16/6/1 6/2/1 2/4/1
f 20/22/4 19/23/4 13/24/4
f 25/25/7 44/26/7 22/27/7
f 23/28/8 46/29/8 24/30/8
f 22/31/9 47/32/9 27/33/9
f 43/34/10 25/25/10 26/35/10
f 46/36/11 26/37/11 24/38/11
f 27/39/12 48/40/12 23/28/12
f 22/27/1 27/33/1 23/28/1
f 31/41/13 50/42/13 28/43/13
f 57/44/14 30/45/14 29/46/14
f 28/47/15 42/48/15 33/49/15
f 40/50/16 31/41/16 32/51/16
f 41/52/17 32/53/17 30/54/17
f 33/55/18 57/44/18 29/46/18
f 32/53/1 28/43/1 29/46/1
f 37/56/19 56/57/19 34/58/19
f 53/59/20 36/60/20 35/61/20
f 34/62/21 55/63/21 39/64/21
f 52/65/22 37/56/22 38/66/22
f 54/67/23 38/68/23 36/69/23
f 39/70/24 53/59/24 35/61/24
f 34/58/1 39/64/1 35/61/1
f 57/44/6 50/71/6 40/50/6
f 56/72/6 51/73/6 54/67/6
f 44/26/6 43/74/6 48/40/6
f 88/75/25 59/76/25 80/77/25
f 73/78/26 85/79/26 84/80/26
f 79/81/27 58/82/27 78/83/27
f 63/84/28 88/85/28 87/86/28
f 65/87/29 82/88/29 94/89/29
f 93/90/30 69/91/30 90/92/30
f 75/93/31 83/94/31 92/95/31
f 67/96/32 86/97/32 82/98/32
f 59/76/33 79/99/33 80/77/33
f 72/100/34 81/101/34 83/102/34
f 85/103/35 74/104/35 91/105/35
f 74/104/36 92/106/36 91/105/36
f 69/107/37 89/108/37 90/109/37
f 66/110/38 94/89/38 89/111/38
f 86/112/39 68/113/39 93/90/39
f 71/114/40 84/115/40 81/101/40
f 108/116/41 100/117/41 102/118/41
f 109/119/42 102/120/42 99/121/42
f 97/122/43 106/123/43 96/124/43
f 105/125/44 109/126/44 99/127/44
f 96/124/45 106/123/45 105/125/45
f 62/128/46 103/129/46 76/130/46
f 107/131/47 100/117/47 111/132/47
f 63/133/48 87/134/48 77/135/48
f 111/132/4 108/116/4 109/119/4
f 113/136/49 117/137/49 114/138/49
f 112/139/6 117/137/6 116/140/6
f 115/141/1 119/142/1 113/136/1
f 112/139/50 118/143/50 115/141/50
f 116/140/51 119/142/51 118/143/51
f 126/144/50 122/145/50 128/146/50
f 124/147/1 121/148/1 122/145/1
f 112/149/4 113/150/4 114/151/4
f 128/146/4 120/152/4 125/153/4
f 127/154/6 128/155/6 125/156/6
f 125/153/49 120/152/49 121/148/49
f 127/157/51 124/147/51 126/144/51
f 1/1/1 2/4/1 6/2/1
f 2/4/2 4/7/2 13/5/2
f 1/1/3 3/158/3 4/7/3
f 6/2/4 8/10/4 7/8/4
f 17/9/5 19/20/5 8/10/5
f 3/11/6 9/18/6 10/12/6
f 4/13/6 10/12/6 13/5/6
f 10/12/6 15/21/6 14/14/6
f 12/15/6 21/159/6 20/16/6
f 9/18/4 12/15/4 11/17/4
f 3/11/5 1/1/5 7/8/5
f 1/1/5 5/3/5 7/8/5
f 7/8/5 18/19/5 21/159/5
f 12/15/5 9/18/5 3/11/5
f 7/8/5 21/159/5 12/15/5
f 18/19/1 7/8/1 8/10/1
f 15/21/5 10/12/5 11/17/5
f 16/6/1 17/9/1 6/2/1
f 13/24/4 14/160/4 20/22/4
f 14/160/4 15/161/4 20/22/4
f 20/22/4 21/162/4 18/163/4
f 17/164/4 16/165/4 19/23/4
f 16/165/4 13/24/4 19/23/4
f 20/22/4 18/163/4 19/23/4
f 25/25/7 45/166/7 44/26/7
f 23/28/8 48/40/8 46/29/8
f 22/31/9 44/167/9 47/32/9
f 43/34/10 45/166/10 25/25/10
f 46/36/11 43/74/11 26/37/11
f 27/39/12 47/168/12 48/40/12
f 23/28/1 24/38/1 22/27/1
f 24/38/1 26/37/1 22/27/1
f 26/37/1 25/25/1 22/27/1
f 31/41/13 49/169/13 50/42/13
f 57/44/14 41/170/14 30/45/14
f 28/47/15 50/71/15 42/48/15
f 40/50/16 49/169/16 31/41/16
f 41/52/17 40/171/17 32/53/17
f 33/55/18 42/172/18 57/44/18
f 29/46/1 30/54/1 32/53/1
f 32/53/1 31/41/1 28/43/1
f 28/43/1 33/49/1 29/46/1
f 37/56/19 51/73/19 56/57/19
f 53/59/20 54/173/20 36/60/20
f 34/62/21 56/72/21 55/63/21
f 52/65/22 51/73/22 37/56/22
f 54/67/23 52/174/23 38/68/23
f 39/70/24 55/175/24 53/59/24
f 35/61/1 36/69/1 34/58/1
f 36/69/1 38/68/1 34/58/1
f 38/68/1 37/56/1 34/58/1
f 40/50/6 41/170/6 57/44/6
f 57/44/6 42/172/6 50/71/6
f 50/71/6 49/169/6 40/50/6
f 51/73/6 52/174/6 54/67/6
f 54/67/6 53/59/6 55/175/6
f 55/175/6 56/72/6 54/67/6
f 48/40/6 47/168/6 44/26/6
f 44/26/6 45/166/6 43/74/6
f 43/74/6 46/29/6 48/40/6
f 88/75/25 60/176/25 59/76/25
f 73/78/26 70/177/26 85/79/26
f 79/81/27 61/178/27 58/82/27
f 63/84/28 60/179/28 88/85/28
f 65/87/29 67/180/29 82/88/29
f 93/90/30 68/113/30 69/91/30
f 75/93/31 72/181/31 83/94/31
f 67/96/32 64/182/32 86/97/32
f 59/76/33 61/183/33 79/99/33
f 72/100/34 71/114/34 81/101/34
f 85/103/35 70/184/35 74/104/35
f 74/104/36 75/185/36 92/106/36
f 69/107/37 66/186/37 89/108/37
f 66/110/38 65/87/38 94/89/38
f 86/112/39 64/187/39 68/113/39
f 71/114/40 73/188/40 84/115/40
f 108/116/41 111/132/41 100/117/41
f 109/119/42 108/189/42 102/120/42
f 97/122/43 107/131/43 106/123/43
f 98/190/44 95/191/44 99/127/44
f 95/191/44 105/125/44 99/127/44
f 105/125/45 95/191/45 96/124/45
f 95/191/45 101/192/45 96/124/45
f 103/129/46 110/193/46 76/130/46
f 76/130/46 78/194/46 58/195/46
f 58/195/46 62/128/46 76/130/46
f 107/131/47 97/122/47 100/117/47
f 104/196/48 103/129/48 77/135/48
f 103/129/48 62/128/48 77/135/48
f 62/128/48 63/133/48 77/135/48
f 109/119/4 105/125/4 111/132/4
f 105/125/4 106/123/4 111/132/4
f 106/123/4 107/131/4 111/132/4
f 113/136/49 119/142/49 117/137/49
f 112/139/6 114/138/6 117/137/6
f 115/141/1 118/143/1 119/142/1
f 112/139/50 116/140/50 118/143/50
f 116/140/51 117/137/51 119/142/51
f 124/147/50 122/145/50 126/144/50
f 122/145/50 112/197/50 128/146/50
f 124/147/1 123/198/1 121/148/1
f 112/149/4 115/199/4 113/150/4
f 128/146/4 112/197/4 120/152/4
f 127/154/6 126/200/6 128/155/6
f 123/198/49 127/157/49 121/148/49
f 127/157/49 125/153/49 121/148/49
f 127/157/51 123/198/51 124/147/51
