# Blender v2.82 (sub 7) OBJ File: 'house1.blend'
# www.blender.org
v 0.317509 0.750000 0.250001
v 0.265783 0.635200 0.250001
v 0.079225 0.616432 0.250000
v -0.016913 0.750000 0.250001
v 0.336291 0.527239 0.250001
v 0.200927 0.656980 0.250001
v 0.317509 0.750000 -0.249999
v -0.016913 0.750000 -0.249999
v 0.265783 0.635200 -0.249999
v 0.079225 0.616432 -0.250000
v -0.023791 0.422522 -0.249999
v 0.020886 0.604621 -0.249999
v 0.200927 0.656980 -0.249999
v 0.293949 0.289641 -0.249999
v 0.114889 0.345261 -0.249999
v 0.302914 0.250000 -0.249999
v 0.011814 0.250000 -0.249999
v 0.111573 0.292781 -0.249999
v 0.336291 0.527239 -0.249999
v 0.291615 0.345139 -0.249999
v 0.293949 0.289641 0.250001
v 0.114889 0.345261 0.250001
v 0.302914 0.250000 0.250001
v 0.011814 0.250000 0.250001
v -0.023791 0.422522 0.250001
v 0.111573 0.292781 0.250001
v 0.020886 0.604621 0.250001
v 0.291615 0.345139 0.250001
v 0.335310 0.106759 0.500000
v 0.197611 -0.020501 0.500000
v -0.022810 0.218001 0.500000
v 0.233275 0.958329 0.500000
v -0.030308 0.768612 0.500000
v 0.046717 0.939560 0.500000
v 0.342808 0.806149 0.500000
v 0.079225 0.616432 0.500000
v 0.265783 0.635200 0.500000
v 0.293949 0.289641 0.500000
v 0.114889 0.345261 0.500000
v 0.200927 0.656980 0.500000
v 0.336291 0.527239 0.500000
v 0.111573 0.292781 0.500000
v 0.291615 0.345139 0.500000
v -0.023791 0.422522 0.500000
v 0.020886 0.604621 0.500000
v 0.018551 0.035120 0.500000
v 0.197611 -0.020501 -0.500000
v 0.335310 0.106759 -0.500000
v 0.293949 0.289641 -0.500000
v -0.022810 0.218001 -0.500000
v 0.114889 0.345261 -0.500000
v 0.265783 0.635200 -0.500000
v 0.342808 0.806149 -0.500000
v 0.046717 0.939560 -0.500000
v 0.233275 0.958329 -0.500000
v -0.030308 0.768612 -0.500000
v 0.079225 0.616432 -0.500000
v -0.023791 0.422522 -0.500000
v 0.336291 0.527239 -0.500000
v 0.291615 0.345139 -0.500000
v 0.111573 0.292781 -0.500000
v 0.020886 0.604621 -0.500000
v 0.200927 0.656980 -0.500000
v 0.018551 0.035120 -0.500000
v -0.437500 0.312500 0.250000
v 0.062500 0.312500 0.250000
v -0.437500 0.312500 -0.250000
v 0.062500 0.312500 -0.250000
v -0.437500 0.250000 -0.250000
v -0.437500 0.250000 0.250000
v 0.062500 0.250000 0.250000
v 0.062500 0.250000 -0.250000
v -0.437500 0.250000 -0.187500
v -0.375000 0.250000 -0.187500
v -0.437500 0.250000 -0.250000
v -0.375000 0.250000 -0.250000
v -0.437500 0.000000 -0.250000
v -0.437500 0.000000 -0.187500
v -0.375000 0.000000 -0.187500
v -0.375000 0.000000 -0.250000
v -0.437500 0.250000 0.250000
v -0.375000 0.250000 0.250000
v -0.437500 0.250000 0.187500
v -0.375000 0.250000 0.187500
v -0.437500 0.000000 0.187500
v -0.437500 0.000000 0.250000
v -0.375000 0.000000 0.250000
v -0.375000 0.000000 0.187500
v 0.250000 0.687500 0.187500
v 0.250000 0.312500 0.187500
v 0.281250 0.687500 0.133373
v 0.281250 0.312500 0.133373
v 0.412380 0.687500 0.281250
v 0.412380 0.312500 0.281250
v 0.443630 0.687500 0.227123
v 0.443630 0.312500 0.227123
v 0.250000 0.750000 0.250000
v 0.250000 0.250000 0.250000
v 0.250000 0.750000 -0.250000
v 0.250000 0.250000 -0.250000
v 0.250000 0.687500 0.187500
v 0.250000 0.687500 -0.187500
v 0.250000 0.312500 0.187500
v 0.250000 0.312500 -0.187500
v 0.062500 0.750000 -0.250000
v 0.062500 0.250000 -0.250000
v 0.062500 0.750000 0.250000
v 0.062500 0.250000 0.250000
v 0.062500 0.687500 -0.187500
v 0.062500 0.687500 0.187500
v 0.062500 0.312500 -0.187500
v 0.062500 0.312500 0.187500
v 0.250000 0.687500 -0.187500
v 0.250000 0.312500 -0.187500
v 0.281250 0.687500 -0.133373
v 0.281250 0.312500 -0.133373
v 0.412380 0.687500 -0.281250
v 0.412380 0.312500 -0.281250
v 0.443630 0.687500 -0.227123
v 0.443630 0.312500 -0.227123
v -0.343750 0.187500 -0.187500
v -0.093750 0.187500 -0.187500
v -0.343750 0.187500 -0.375000
v -0.343750 0.500000 -0.375000
v -0.343750 0.500000 -0.437500
v -0.093750 0.500000 -0.437500
v -0.093750 0.500000 -0.375000
v -0.093750 0.187500 -0.375000
v -0.343750 0.125000 -0.187500
v -0.093750 0.125000 -0.187500
v -0.343750 0.125000 -0.437500
v -0.093750 0.125000 -0.437500
v -0.343750 0.125000 -0.375000
v -0.281250 0.125000 -0.375000
v -0.343750 0.125000 -0.437500
v -0.281250 0.125000 -0.437500
v -0.343750 0.000000 -0.375000
v -0.281250 0.000000 -0.375000
v -0.343750 0.000000 -0.437500
v -0.281250 0.000000 -0.437500
v -0.156250 0.125000 -0.375000
v -0.093750 0.125000 -0.375000
v -0.156250 0.125000 -0.437500
v -0.093750 0.125000 -0.437500
v -0.156250 0.000000 -0.375000
v -0.093750 0.000000 -0.375000
v -0.156250 0.000000 -0.437500
v -0.093750 0.000000 -0.437500
v -0.343750 0.125000 -0.187500
v -0.281250 0.125000 -0.187500
v -0.343750 0.125000 -0.250000
v -0.281250 0.125000 -0.250000
v -0.343750 0.000000 -0.187500
v -0.281250 0.000000 -0.187500
v -0.343750 0.000000 -0.250000
v -0.281250 0.000000 -0.250000
v -0.156250 0.125000 -0.187500
v -0.093750 0.125000 -0.187500
v -0.156250 0.125000 -0.250000
v -0.093750 0.125000 -0.250000
v -0.156250 0.000000 -0.187500
v -0.093750 0.000000 -0.187500
v -0.156250 0.000000 -0.250000
v -0.093750 0.000000 -0.250000
v -0.500000 1.427832 0.500000
v 0.443029 0.811205 0.500000
v 0.474279 0.865332 0.500000
v -0.500000 1.355663 0.500000
v -0.500000 1.427832 -0.500000
v 0.443029 0.811205 -0.500000
v -0.500000 1.355663 -0.500000
v 0.474279 0.865332 -0.500000
vt 1.000000 0.000000
vt 0.809478 0.000000
vt 0.920720 0.000000
vt 0.000000 0.000000
vt 0.267137 0.000000
vt 0.000000 0.000000
vt 0.000000 1.000000
vt 0.267137 1.000000
vt 0.229600 1.000000
vt 1.000000 1.000000
vt 0.809478 1.000000
vt 1.000000 1.000000
vt 1.000000 0.600000
vt 0.000000 0.700000
vt 0.000000 0.600000
vt 1.000000 0.600000
vt 0.000000 0.700000
vt 0.000000 0.600000
vt 1.000000 0.600000
vt 0.000000 0.700000
vt 1.000000 0.700000
vt 0.000000 0.700000
vt 0.000000 0.600000
vt 1.000000 0.591808
vt 0.000000 0.691808
vt 0.000000 0.591808
vt 1.000000 0.595228
vt 0.000000 0.695228
vt 0.000000 0.595227
vt 0.000000 0.600000
vt 1.000000 0.700000
vt 1.000000 0.600000
vt 1.000000 0.700000
vt 1.000000 0.600000
vt 0.000000 0.400000
vt 1.000000 0.400000
vt 0.000000 0.400000
vt 1.000000 0.295228
vt 0.000000 0.395228
vt 0.000000 0.295228
vt 0.000000 0.295228
vt 1.000000 0.695228
vt 1.000000 0.295228
vt 1.000000 0.295228
vt 0.671549 0.595228
vt 1.000000 0.695228
vt 0.877702 0.595228
vt 0.877702 0.395228
vt 1.000000 0.295228
vt 0.000000 0.300000
vt 1.000000 0.400000
vt 1.000000 0.300000
vt 0.000000 0.400000
vt 0.000000 0.300000
vt 0.000000 0.291808
vt 1.000000 0.691808
vt 1.000000 0.291808
vt 1.000000 0.291808
vt 0.000000 0.391808
vt 0.000000 0.291808
vt 1.000000 0.300000
vt 0.000000 0.300000
vt 1.000000 0.291808
vt 0.000000 0.691809
vt 0.000000 0.291808
vt 0.251448 0.591808
vt 0.000000 0.691809
vt 1.000000 0.300000
vt 0.000000 0.400000
vt 0.000000 0.300000
vt 1.000000 0.300000
vt 1.000000 0.400000
vt 0.750809 0.362936
vt 0.842966 0.459088
vt 0.713617 0.490823
vt 0.692623 0.558076
vt 0.737543 0.495667
vt 0.814051 0.503364
vt 0.695697 0.332269
vt 0.712660 0.257268
vt 0.786093 0.234458
vt 0.000000 0.300000
vt 1.000000 0.400000
vt 1.000000 0.300000
vt 0.000000 0.291808
vt 1.000000 0.691808
vt 1.000000 0.291808
vt 1.000000 0.295228
vt 0.000000 0.695228
vt 0.000000 0.295228
vt 0.000000 0.291808
vt 0.783247 0.591808
vt 0.783247 0.391808
vt 0.000000 0.295228
vt 1.000000 0.695228
vt 1.000000 0.695228
vt 1.000000 0.695228
vt 1.000000 0.700000
vt 1.000000 0.691809
vt 1.000000 0.691808
vt 0.000000 0.691808
vt 1.000000 0.000000
vt 0.000000 1.000000
vt 0.000000 0.000000
vt 0.000000 1.000000
vt 1.000000 0.000000
vt 0.000000 0.000000
vt 1.000000 1.000000
vt 1.000000 1.000000
vt 0.000000 1.000000
vt 0.000000 0.000000
vt 0.000000 1.000000
vt 1.000000 1.000000
vt 1.000000 1.000000
vt 0.000000 0.000000
vt 1.000000 0.000000
vt 1.000000 0.000000
vt 0.000000 1.000000
vt 0.000000 0.000000
vt 0.000000 1.000000
vt 1.000000 1.000000
vt 1.000000 1.000000
vt 0.000000 0.000000
vt 1.000000 0.000000
vt 1.000000 0.000000
vt 0.000000 0.000000
vt 0.000000 0.000000
vt 0.000000 0.000000
vt 0.000000 0.000000
vt 0.000000 0.000000
vt 0.000000 0.000000
vt 0.000000 0.000000
vt 0.000000 0.000000
vt 0.000000 0.000000
vt 0.000000 1.000000
vt 0.000000 1.000000
vt 1.000000 1.000000
vt 1.000000 1.000000
vt 1.000000 0.000000
vt 0.000000 1.000000
vt 1.000000 1.000000
vt 0.000000 0.000000
vt 0.000000 1.000000
vt 1.000000 1.000000
vt 0.000000 0.000000
vt 1.000000 0.000000
vt 1.000000 0.000000
vt 0.000000 0.000000
vt 1.000000 0.000000
vt 0.000000 0.000000
vt 0.000000 0.000000
vt 0.000000 0.000000
vt 0.000000 0.000000
vt 0.000000 0.000000
vt 0.000000 0.000000
vt 0.000000 0.000000
vt 0.000000 0.000000
vt 0.000000 0.000000
vt 0.000000 0.000000
vt 0.000000 0.000000
vt 1.000000 0.000000
vt 0.000000 0.750000
vt 0.000000 0.000000
vt 1.000000 0.750000
vt 0.000000 1.000000
vt 0.000000 0.750000
vt 1.000000 0.750000
vt 0.000000 0.000000
vt 0.000000 0.000000
vt 0.000000 0.000000
vt 1.000000 0.000000
vt 0.000000 0.000000
vt 0.000000 0.000000
vt 1.000000 1.000000
vt 0.000000 1.000000
vt 1.000000 1.000000
vt 0.000000 0.000000
vt 1.000000 0.000000
vt 0.000000 0.000000
vt 1.000000 0.000000
vt 0.000000 1.000000
vt 1.000000 1.000000
vt 0.000000 1.000000
vt 1.000000 1.000000
vt 0.000000 0.000000
vt 1.000000 0.000000
vt 0.000000 0.000000
vt 1.000000 0.000000
vt 0.000000 1.000000
vt 1.000000 1.000000
vt 0.000000 1.000000
vt 1.000000 1.000000
vt 0.000000 0.000000
vt 1.000000 0.000000
vt 0.000000 0.000000
vt 1.000000 0.000000
vt 0.000000 1.000000
vt 1.000000 1.000000
vt 0.000000 1.000000
vt 1.000000 1.000000
vt 0.000000 0.000000
vt 1.000000 0.000000
vt 0.000000 0.000000
vt 1.000000 0.000000
vt 0.000000 1.000000
vt 0.966038 0.289474
vt 0.000000 0.710526
vt 0.000000 0.289474
vt 0.966038 0.710526
vt 1.000000 0.289474
vt 1.000000 0.710526
vt 0.000000 0.710526
vt 0.000000 0.289474
vt 1.000000 0.000000
vt 0.229600 0.000000
vt 0.000000 1.000000
vt 0.920720 1.000000
vt 1.000000 0.700000
vt 0.000000 0.600000
vt 0.000000 0.700000
vt 1.000000 0.400000
vt 1.000000 0.395228
vt 0.000000 0.695228
vt 0.671549 0.395228
vt 0.000000 0.395228
vt 0.000000 0.295228
vt 0.000000 0.695228
vt 0.000000 0.595228
vt 1.000000 0.391808
vt 1.000000 0.291808
vt 0.251448 0.391808
vt 1.000000 0.391808
vt 1.000000 0.591808
vt 1.000000 0.691808
vt 0.695295 0.416143
vt 0.824644 0.384409
vt 0.787453 0.512296
vt 0.845639 0.573470
vt 0.800719 0.635880
vt 0.724211 0.628183
vt 0.842564 0.286648
vt 0.825602 0.361648
vt 0.752168 0.384459
vt 0.000000 0.400000
vt 0.000000 0.691808
vt 0.000000 0.695228
vt 0.000000 0.000000
vt 1.000000 1.000000
vn 0.0000 0.0000 -1.0000
vn -0.0000 0.0000 1.0000
vn 0.0000 1.0000 0.0000
vn -0.9712 0.2383 0.0000
vn -0.6920 -0.7219 0.0000
vn 0.6920 0.7219 0.0000
vn -0.2792 0.9602 0.0000
vn 0.2966 0.9550 0.0000
vn 0.1001 -0.9950 0.0000
vn 0.9712 -0.2383 0.0000
vn 0.2792 -0.9602 0.0000
vn 0.0000 -1.0000 0.0000
vn 0.8116 0.5842 0.0000
vn 0.9117 -0.4108 0.0000
vn -0.8116 -0.5842 0.0000
vn -0.2966 -0.9550 0.0000
vn -0.9754 -0.2206 0.0000
vn -0.6787 0.7344 0.0000
vn 0.6787 -0.7344 0.0000
vn -0.9117 0.4108 0.0000
vn 0.9754 0.2206 0.0000
vn -0.1001 0.9950 0.0000
vn -1.0000 0.0000 0.0000
vn 1.0000 0.0000 0.0000
vn -0.8660 -0.0000 -0.5000
vn 0.8660 0.0000 0.5000
vn 0.5000 0.0000 -0.8660
vn -0.5000 -0.0000 0.8660
vn -0.8660 -0.0000 0.5000
vn 0.8660 0.0000 -0.5000
vn 0.5000 0.0000 0.8660
vn -0.5000 -0.0000 -0.8660
vn -0.5000 -0.8660 0.0000
vn 0.8660 -0.5000 0.0000
vn 0.5000 0.8660 0.0000
s off
f 23/1/1 22/2/1 21/3/1
f 1/4/1 3/5/1 4/6/1
f 7/7/2 10/8/2 9/9/2
f 16/10/2 15/11/2 17/12/2
f 17/12/3 23/1/3 16/10/3
f 12/13/4 58/14/4 11/15/4
f 11/16/5 61/17/5 18/18/5
f 13/19/6 59/20/6 63/21/6
f 13/19/7 62/22/7 12/23/7
f 14/24/8 51/25/8 15/26/8
f 10/27/9 52/28/9 9/29/9
f 20/30/10 59/31/10 19/32/10
f 18/18/11 60/33/11 20/34/11
f 4/6/12 7/7/12 1/4/12
f 26/35/1 27/36/1 5/37/1
f 18/18/2 19/32/2 12/23/2
f 36/38/9 2/39/9 37/40/9
f 35/41/13 55/42/13 32/43/13
f 35/44/14 7/45/14 53/46/14
f 8/47/15 4/48/15 33/49/15
f 41/50/6 6/51/6 40/52/6
f 40/52/7 27/53/7 45/54/7
f 46/55/16 47/56/16 30/57/16
f 38/58/8 22/59/8 39/60/8
f 44/61/5 26/35/5 42/62/5
f 31/63/17 64/64/17 46/55/17
f 31/65/18 17/66/18 50/67/18
f 45/68/4 25/69/4 44/70/4
f 43/71/11 26/35/11 28/72/11
f 42/73/2 41/74/2 45/75/2
f 33/76/2 36/77/2 37/78/2
f 31/79/2 46/80/2 30/81/2
f 43/82/10 5/83/10 41/84/10
f 30/85/19 48/86/19 29/87/19
f 34/88/20 56/89/20 33/90/20
f 29/91/21 16/92/21 23/93/21
f 32/94/22 54/95/22 34/88/22
f 57/96/1 56/97/1 54/95/1
f 62/98/1 63/21/1 59/20/1
f 50/99/1 49/100/1 47/101/1
f 66/102/3 67/103/3 65/104/3
f 69/105/12 71/106/12 70/107/12
f 69/105/23 65/104/23 67/103/23
f 72/108/1 67/103/1 68/109/1
f 70/107/2 66/102/2 65/104/2
f 77/110/23 73/111/23 75/112/23
f 80/113/1 75/112/1 76/114/1
f 78/115/2 74/116/2 73/111/2
f 79/117/24 76/114/24 74/116/24
f 85/118/23 81/119/23 83/120/23
f 88/121/1 83/120/1 84/122/1
f 86/123/2 82/124/2 81/119/2
f 87/125/24 84/122/24 82/124/24
f 89/126/25 92/127/25 90/128/25
f 96/129/26 93/130/26 94/131/26
f 95/132/27 92/127/27 91/133/27
f 92/127/12 94/131/12 90/128/12
f 94/131/28 89/126/28 90/128/28
f 93/130/3 91/133/3 89/126/3
f 97/134/24 102/135/24 99/136/24
f 112/137/3 104/138/3 111/139/3
f 107/140/23 112/137/23 108/141/23
f 105/142/23 110/143/23 107/140/23
f 99/136/24 104/138/24 100/144/24
f 101/145/24 98/146/24 103/147/24
f 100/144/24 103/147/24 98/146/24
f 109/148/23 106/149/23 111/139/23
f 108/141/23 111/139/23 106/149/23
f 110/143/1 103/147/1 112/137/1
f 102/135/12 110/143/12 109/148/12
f 111/139/2 102/135/2 109/148/2
f 100/144/1 105/142/1 99/136/1
f 98/146/2 107/140/2 108/141/2
f 116/150/29 113/151/29 114/152/29
f 117/153/30 120/154/30 118/155/30
f 116/150/31 119/156/31 115/157/31
f 116/150/12 118/155/12 120/154/12
f 113/151/32 118/155/32 114/152/32
f 115/157/3 117/153/3 113/151/3
f 123/158/23 125/159/23 131/160/23
f 122/161/3 123/162/3 121/163/3
f 127/164/3 125/165/3 124/166/3
f 128/167/2 124/166/2 123/162/2
f 128/168/24 126/169/24 127/170/24
f 128/167/24 130/171/24 132/172/24
f 123/158/23 129/173/23 121/163/23
f 131/160/1 126/169/1 132/172/1
f 121/163/2 130/171/2 122/161/2
f 130/171/12 131/160/12 132/172/12
f 140/174/1 135/175/1 136/176/1
f 137/177/2 134/178/2 133/179/2
f 138/180/24 136/176/24 134/178/24
f 139/181/23 133/179/23 135/175/23
f 148/182/1 143/183/1 144/184/1
f 145/185/2 142/186/2 141/187/2
f 146/188/24 144/184/24 142/186/24
f 147/189/23 141/187/23 143/183/23
f 156/190/1 151/191/1 152/192/1
f 153/193/2 150/194/2 149/195/2
f 154/196/24 152/192/24 150/194/24
f 155/197/23 149/195/23 151/191/23
f 164/198/1 159/199/1 160/200/1
f 161/201/2 158/202/2 157/203/2
f 162/204/24 160/200/24 158/202/24
f 163/205/23 157/203/23 159/199/23
f 168/206/33 170/207/33 166/208/33
f 171/209/23 165/210/23 169/211/23
f 172/212/34 166/208/34 170/207/34
f 169/211/35 167/213/35 172/212/35
f 168/206/2 167/213/2 165/210/2
f 172/212/1 171/209/1 169/211/1
f 23/1/1 24/214/1 22/2/1
f 1/4/1 2/215/1 3/5/1
f 7/7/2 8/216/2 10/8/2
f 16/10/2 14/217/2 15/11/2
f 17/12/3 24/214/3 23/1/3
f 12/13/4 62/98/4 58/14/4
f 11/16/5 58/218/5 61/17/5
f 13/19/6 19/219/6 59/20/6
f 13/19/7 63/21/7 62/22/7
f 14/24/8 49/100/8 51/25/8
f 10/27/9 57/96/9 52/28/9
f 20/30/10 60/220/10 59/31/10
f 18/18/11 61/17/11 60/33/11
f 4/6/12 8/216/12 7/7/12
f 5/37/1 28/72/1 26/35/1
f 26/35/1 25/221/1 27/36/1
f 27/36/1 6/51/1 5/37/1
f 12/23/2 11/16/2 18/18/2
f 18/18/2 20/34/2 19/32/2
f 19/32/2 13/19/2 12/23/2
f 36/38/9 3/222/9 2/39/9
f 35/41/13 53/223/13 55/42/13
f 35/44/14 37/40/14 1/224/14
f 37/40/14 2/39/14 1/224/14
f 9/29/14 52/28/14 7/45/14
f 52/28/14 53/46/14 7/45/14
f 35/44/14 1/224/14 7/45/14
f 3/225/15 36/226/15 4/48/15
f 36/226/15 33/49/15 4/48/15
f 56/97/15 57/227/15 8/47/15
f 57/227/15 10/228/15 8/47/15
f 56/97/15 8/47/15 33/49/15
f 41/50/6 5/37/6 6/51/6
f 40/52/7 6/51/7 27/53/7
f 46/55/16 64/64/16 47/56/16
f 38/58/8 21/229/8 22/59/8
f 44/61/5 25/221/5 26/35/5
f 31/63/17 50/99/17 64/64/17
f 31/65/18 39/230/18 24/231/18
f 39/230/18 22/232/18 24/231/18
f 15/233/18 51/234/18 17/66/18
f 51/234/18 50/67/18 17/66/18
f 31/65/18 24/231/18 17/66/18
f 45/68/4 27/36/4 25/69/4
f 43/71/11 42/62/11 26/35/11
f 45/75/2 44/235/2 42/73/2
f 42/73/2 43/236/2 41/74/2
f 41/74/2 40/237/2 45/75/2
f 37/78/2 35/238/2 33/76/2
f 35/238/2 32/239/2 33/76/2
f 32/239/2 34/240/2 33/76/2
f 30/81/2 29/241/2 31/79/2
f 29/241/2 38/242/2 31/79/2
f 38/242/2 39/243/2 31/79/2
f 43/82/10 28/244/10 5/83/10
f 30/85/19 47/101/19 48/86/19
f 34/88/20 54/95/20 56/89/20
f 21/229/21 38/58/21 23/93/21
f 38/58/21 29/91/21 23/93/21
f 29/91/21 48/245/21 16/92/21
f 48/245/21 49/100/21 16/92/21
f 49/100/21 14/24/21 16/92/21
f 32/94/22 55/246/22 54/95/22
f 54/95/1 55/42/1 53/223/1
f 53/223/1 52/28/1 54/95/1
f 52/28/1 57/96/1 54/95/1
f 59/20/1 60/33/1 61/17/1
f 61/17/1 58/218/1 59/20/1
f 58/218/1 62/98/1 59/20/1
f 47/101/1 64/64/1 50/99/1
f 50/99/1 51/234/1 49/100/1
f 49/100/1 48/245/1 47/101/1
f 66/102/3 68/109/3 67/103/3
f 69/105/12 72/108/12 71/106/12
f 69/105/23 70/107/23 65/104/23
f 72/108/1 69/105/1 67/103/1
f 70/107/2 71/106/2 66/102/2
f 77/110/23 78/115/23 73/111/23
f 80/113/1 77/110/1 75/112/1
f 78/115/2 79/117/2 74/116/2
f 79/117/24 80/113/24 76/114/24
f 85/118/23 86/123/23 81/119/23
f 88/121/1 85/118/1 83/120/1
f 86/123/2 87/125/2 82/124/2
f 87/125/24 88/121/24 84/122/24
f 89/126/25 91/133/25 92/127/25
f 96/129/26 95/132/26 93/130/26
f 95/132/27 96/129/27 92/127/27
f 92/127/12 96/129/12 94/131/12
f 94/131/28 93/130/28 89/126/28
f 93/130/3 95/132/3 91/133/3
f 97/134/24 101/145/24 102/135/24
f 112/137/3 103/147/3 104/138/3
f 107/140/23 110/143/23 112/137/23
f 105/142/23 109/148/23 110/143/23
f 99/136/24 102/135/24 104/138/24
f 101/145/24 97/134/24 98/146/24
f 100/144/24 104/138/24 103/147/24
f 109/148/23 105/142/23 106/149/23
f 108/141/23 112/137/23 111/139/23
f 110/143/1 101/145/1 103/147/1
f 102/135/12 101/145/12 110/143/12
f 111/139/2 104/138/2 102/135/2
f 100/144/1 106/149/1 105/142/1
f 98/146/2 97/134/2 107/140/2
f 116/150/29 115/157/29 113/151/29
f 117/153/30 119/156/30 120/154/30
f 116/150/31 120/154/31 119/156/31
f 116/150/12 114/152/12 118/155/12
f 113/151/32 117/153/32 118/155/32
f 115/157/3 119/156/3 117/153/3
f 123/158/23 124/247/23 125/159/23
f 122/161/3 128/167/3 123/162/3
f 127/164/3 126/248/3 125/165/3
f 128/167/2 127/164/2 124/166/2
f 128/168/24 132/172/24 126/169/24
f 128/167/24 122/161/24 130/171/24
f 123/158/23 131/160/23 129/173/23
f 131/160/1 125/159/1 126/169/1
f 121/163/2 129/173/2 130/171/2
f 130/171/12 129/173/12 131/160/12
f 140/174/1 139/181/1 135/175/1
f 137/177/2 138/180/2 134/178/2
f 138/180/24 140/174/24 136/176/24
f 139/181/23 137/177/23 133/179/23
f 148/182/1 147/189/1 143/183/1
f 145/185/2 146/188/2 142/186/2
f 146/188/24 148/182/24 144/184/24
f 147/189/23 145/185/23 141/187/23
f 156/190/1 155/197/1 151/191/1
f 153/193/2 154/196/2 150/194/2
f 154/196/24 156/190/24 152/192/24
f 155/197/23 153/193/23 149/195/23
f 164/198/1 163/205/1 159/199/1
f 161/201/2 162/204/2 158/202/2
f 162/204/24 164/198/24 160/200/24
f 163/205/23 161/201/23 157/203/23
f 168/206/33 171/209/33 170/207/33
f 171/209/23 168/206/23 165/210/23
f 172/212/34 167/213/34 166/208/34
f 169/211/35 165/210/35 167/213/35
f 168/206/2 166/208/2 167/213/2
f 172/212/1 170/207/1 171/209/1
