# Blender v2.82 (sub 7) OBJ File: 'house1.blend'
# www.blender.org
v 0.187500 0.842790 0.147876
v 0.187500 0.604548 -0.072826
v 0.187500 0.731970 -0.210376
v 0.187500 0.970213 0.010326
v 0.187500 0.914803 -0.168799
v 0.187500 0.659958 0.106299
v 0.187500 0.194461 0.153485
v 0.187500 -0.013646 -0.095835
v 0.187500 0.130299 -0.215985
v 0.187500 0.338406 0.033335
v 0.187500 0.306325 -0.151401
v 0.187500 0.018435 0.088900
v 0.187500 0.595761 -0.174582
v 0.187500 0.538569 0.145102
v 0.187500 0.353999 0.112082
v 0.187500 0.411191 -0.207602
v 0.187500 0.290311 -0.064270
v 0.187500 0.659450 0.001770
v 0.187500 0.919006 -0.080654
v 0.187500 0.958735 -0.120000
v 0.173776 0.966658 0.100690
v -0.139507 1.147532 0.150093
v -0.370255 1.280754 0.018154
v 0.187500 0.958735 0.070537
v 0.025564 1.052228 -0.212594
v -0.287719 1.233102 -0.163190
v -0.500000 0.842790 0.147876
v -0.500000 0.970213 0.010326
v -0.500000 0.604548 -0.072826
v -0.500000 0.731970 -0.210376
v -0.500000 0.914803 -0.168799
v -0.500000 0.338406 0.033334
v -0.500000 0.290311 -0.064270
v -0.500000 0.595761 -0.174582
v -0.500000 0.130299 -0.215985
v -0.500000 0.194461 0.153485
v -0.500000 -0.013646 -0.095835
v -0.500000 0.353999 0.112082
v -0.500000 0.659450 0.001770
v -0.500000 0.538569 0.145102
v -0.500000 0.411191 -0.207602
v -0.500000 0.659958 0.106299
v -0.500000 0.018435 0.088900
v -0.500000 0.306325 -0.151401
v -0.500000 0.919006 -0.080654
v -0.500000 1.052228 -0.212594
v -0.500000 0.966658 0.100690
v -0.500000 1.233102 -0.163190
v -0.500000 1.147532 0.150094
v -0.500000 1.280754 0.018154
v -0.030308 0.768612 -0.261930
v 0.265783 0.635200 -0.261930
v 0.342808 0.806149 -0.261930
v 0.079225 0.616432 -0.261930
v 0.046717 0.939560 -0.261930
v 0.233275 0.958329 -0.261930
v 0.114889 0.345261 -0.270479
v 0.018551 0.035120 -0.270479
v 0.197611 -0.020501 -0.270479
v -0.022810 0.218001 -0.270479
v 0.293949 0.289641 -0.270479
v 0.335310 0.106759 -0.270479
v 0.020886 0.604621 -0.249999
v 0.111573 0.292781 -0.249999
v 0.291615 0.345139 -0.249999
v -0.023791 0.422522 -0.249999
v 0.200927 0.656980 -0.249999
v 0.336291 0.527239 -0.249999
v 0.197611 -0.020501 0.500000
v 0.335310 0.106759 0.500000
v 0.293949 0.289641 0.500000
v -0.022810 0.218001 0.500000
v 0.114889 0.345261 0.500000
v 0.265783 0.635200 0.500000
v 0.342808 0.806149 0.500000
v 0.046717 0.939560 0.500000
v 0.233275 0.958329 0.500000
v -0.030308 0.768612 0.500000
v 0.079225 0.616432 0.500000
v -0.023791 0.422522 0.500000
v 0.336291 0.527239 0.500000
v 0.291615 0.345139 0.500000
v 0.111573 0.292781 0.500000
v 0.020886 0.604621 0.500000
v 0.200927 0.656980 0.500000
v 0.018551 0.035120 0.500000
v -0.500000 1.355663 -0.187500
v -0.500000 1.500000 -0.187500
v -0.500000 1.500000 -0.312500
v -0.500000 1.355663 -0.312500
v 0.411779 0.829247 -0.312500
v -0.445873 1.324413 -0.312500
v 0.465905 0.797997 -0.312500
v 0.465905 0.797997 -0.187500
v 0.528405 0.906250 -0.187500
v 0.528405 0.906250 -0.312500
v -0.500000 1.427832 -0.187500
v 0.420152 0.896582 -0.187500
v 0.388902 0.842455 -0.187500
v 0.474279 0.865332 -0.187500
v 0.443029 0.811205 -0.187500
v -0.500000 1.427832 0.500000
v 0.443029 0.811205 0.500000
v -0.500000 1.355663 0.500000
v 0.474279 0.865332 0.500000
vt 1.000000 0.000000
vt 0.000000 0.500000
vt 0.000000 0.000000
vt 0.000000 0.500000
vt 1.000000 0.000000
vt 0.000000 0.000000
vt 1.000000 0.000000
vt 0.000000 0.500000
vt 0.000000 0.000000
vt 0.000000 0.500000
vt 0.000000 0.000000
vt 0.000000 0.500000
vt 1.000000 0.000000
vt 0.000000 0.000000
vt 1.000000 0.500000
vt 1.000000 0.000000
vt 0.000000 0.500000
vt 0.000000 0.000000
vt 0.000000 0.000000
vt 1.000000 0.500000
vt 1.000000 0.000000
vt 1.000000 0.000000
vt 0.000000 0.500000
vt 0.000000 0.000000
vt 0.000000 0.500000
vt 0.000000 0.000000
vt 0.000000 0.500000
vt 1.000000 0.000000
vt 0.000000 0.000000
vt 1.000000 0.500000
vt 0.000000 0.500000
vt 1.000000 0.000000
vt 0.000000 0.500000
vt 0.000000 0.000000
vt 0.000000 0.500000
vt 1.000000 0.000000
vt 0.000000 0.000000
vt 1.000000 0.000000
vt 0.000000 0.500000
vt 0.000000 0.000000
vt 0.000000 0.500000
vt 0.000000 0.000000
vt 0.000000 0.500000
vt 1.000000 0.000000
vt 0.000000 0.000000
vt 1.000000 0.500000
vt 0.000000 1.000000
vt 0.000000 0.000000
vt 0.000000 0.000000
vt 0.000000 0.654386
vt 1.000000 0.594360
vt 0.000000 0.654386
vt 0.000000 0.762177
vt 1.000000 0.594360
vt 0.000000 0.990019
vt 1.000000 0.762177
vt 1.000000 0.762177
vt 0.000000 1.000000
vt 0.833724 1.000000
vt 1.000000 0.990019
vt 1.000000 0.500000
vt 1.000000 0.500000
vt 1.000000 0.500000
vt 1.000000 1.000000
vt 1.000000 1.000000
vt 0.000000 1.000000
vt 1.000000 1.000000
vt 1.000000 1.000000
vt 0.000000 1.000000
vt 1.000000 1.000000
vt 0.000000 1.000000
vt 0.000000 1.000000
vt 1.000000 0.691808
vt 0.000000 1.000000
vt 0.000000 0.691809
vt 0.000000 0.700000
vt 1.000000 1.000000
vt 0.000000 1.000000
vt 0.000000 0.695228
vt 1.000000 0.695228
vt 1.000000 0.691809
vt 0.000000 1.000000
vt 0.000000 0.691809
vt 1.000000 0.700000
vt 0.000000 1.000000
vt 0.000000 0.700000
vt 0.000000 0.700000
vt 1.000000 1.000000
vt 1.000000 0.700000
vt 0.000000 0.700000
vt 1.000000 0.700000
vt 0.000000 0.695228
vt 1.000000 1.000000
vt 1.000000 0.695228
vt 1.000000 0.695228
vt 0.000000 1.000000
vt 0.000000 0.691808
vt 1.000000 0.691808
vt 0.000000 1.000000
vt 0.000000 0.695228
vt 0.000000 0.691808
vt 1.000000 1.000000
vt 1.000000 0.691808
vt 0.842966 0.459088
vt 0.787453 0.512296
vt 0.713617 0.490823
vt 0.692622 0.558076
vt 0.737543 0.495667
vt 0.814051 0.503364
vt 0.695697 0.332269
vt 0.712660 0.257268
vt 0.786093 0.234458
vt 0.000000 0.695228
vt 1.000000 1.000000
vt 1.000000 0.695228
vt 1.000000 1.000000
vt 1.000000 0.700000
vt 1.000000 1.000000
vt 1.000000 0.691808
vt 0.000000 1.000000
vt 0.000000 0.700000
vt 0.000000 1.000000
vt 0.000000 0.691808
vt 1.000000 0.695228
vt 0.000000 1.000000
vt 0.000000 0.695228
vt 0.000000 1.000000
vt 0.000000 1.000000
vt 0.000000 1.000000
vt 1.000000 0.000000
vt 1.000000 1.000000
vt 1.000000 1.000000
vt 0.000000 0.000000
vt 1.000000 0.000000
vt 0.000000 1.000000
vt 0.000000 0.000000
vt 0.000000 0.710526
vt 0.000000 1.000000
vt 0.000000 1.000000
vt 0.000000 0.000000
vt 0.000000 0.000000
vt 0.000000 0.000000
vt 0.000000 1.000000
vt 1.000000 0.710526
vt 0.803043 0.587554
vt 0.831170 0.528361
vt 0.803043 0.528361
vt 0.966038 1.000000
vt 1.000000 1.000000
vt 0.966038 0.710526
vt 0.000000 1.000000
vt 1.000000 0.500000
vt 1.000000 0.500000
vt 1.000000 0.500000
vt 1.000000 0.000000
vt 1.000000 0.500000
vt 1.000000 0.500000
vt 1.000000 0.000000
vt 1.000000 0.500000
vt 1.000000 0.500000
vt 1.000000 0.500000
vt 1.000000 0.000000
vt 0.000000 0.000000
vt 0.000000 0.762177
vt 0.000000 0.990019
vt 1.000000 0.990019
vt 1.000000 1.000000
vt 0.000000 1.000000
vt 1.000000 1.000000
vt 0.000000 1.000000
vt 1.000000 1.000000
vt 1.000000 0.700000
vt 0.695295 0.416143
vt 0.750809 0.362936
vt 0.824644 0.384409
vt 0.845639 0.573470
vt 0.800719 0.635880
vt 0.724211 0.628183
vt 0.842564 0.286648
vt 0.825602 0.361648
vt 0.752169 0.384459
vt 0.000000 0.710526
vt 0.000000 0.000000
vt 0.831170 0.587554
vn 0.0000 0.7336 0.6796
vn 0.0000 -0.7336 -0.6796
vn 0.0000 -0.2217 0.9751
vn 0.0000 0.9553 -0.2955
vn 0.0000 0.2217 -0.9751
vn -0.0000 -0.9553 0.2955
vn -0.0000 0.6408 0.7677
vn 0.0000 -0.6408 -0.7677
vn -0.0000 -0.3445 0.9388
vn 0.0000 0.9853 -0.1711
vn 0.0000 0.3445 -0.9388
vn -0.0000 -0.9853 0.1711
vn 0.0000 0.1761 -0.9844
vn 0.0000 -0.1761 0.9844
vn 0.0000 0.9405 -0.3397
vn 0.0000 -0.7644 -0.6447
vn -0.0000 -0.9405 0.3397
vn -0.0000 0.7644 0.6447
vn -0.0000 -0.7037 -0.7105
vn 0.0000 0.9672 -0.2541
vn 0.0000 0.7037 0.7105
vn 0.0000 -0.2635 0.9647
vn -0.0000 0.2635 -0.9647
vn 0.0000 -0.9672 0.2541
vn -1.0000 0.0000 0.0000
vn 0.0000 0.0000 -1.0000
vn -0.6787 0.7344 0.0000
vn -0.6920 -0.7219 0.0000
vn -0.1001 0.9950 0.0000
vn -0.9754 -0.2206 0.0000
vn -0.9712 0.2383 0.0000
vn 0.9712 -0.2383 0.0000
vn 0.6920 0.7219 0.0000
vn 0.9117 -0.4108 0.0000
vn 0.1001 -0.9950 0.0000
vn 0.9754 0.2206 0.0000
vn -0.9117 0.4108 0.0000
vn 0.6787 -0.7344 -0.0000
vn 0.0000 -0.0000 1.0000
vn 0.8116 0.5842 0.0000
vn 0.2792 -0.9602 0.0000
vn -0.2966 -0.9550 0.0000
vn -0.2792 0.9602 0.0000
vn 0.2966 0.9550 0.0000
vn -0.8116 -0.5842 0.0000
vn 0.5000 0.8660 0.0000
vn 0.8660 -0.5000 0.0000
vn -0.5000 -0.8660 0.0000
s off
f 4/1/1 27/2/1 1/3/1
f 29/4/2 3/5/2 2/6/2
f 1/7/3 42/8/3 6/9/3
f 31/10/4 4/1/4 5/11/4
f 30/12/5 5/13/5 3/14/5
f 2/6/6 42/15/6 29/4/6
f 10/16/7 36/17/7 7/18/7
f 8/19/8 35/20/8 9/21/8
f 7/22/9 43/23/9 12/24/9
f 44/25/10 10/16/10 11/26/10
f 35/27/11 11/28/11 9/29/11
f 8/19/12 43/30/12 37/31/12
f 16/32/13 34/33/13 13/34/13
f 40/35/14 15/36/14 14/37/14
f 13/38/15 39/39/15 18/40/15
f 33/41/16 16/32/16 17/42/16
f 38/43/17 17/44/17 15/45/17
f 14/37/18 39/46/18 40/35/18
f 45/47/19 46/48/19 25/49/19
f 48/50/20 23/51/20 26/52/20
f 49/53/21 23/51/21 50/54/21
f 47/55/22 22/56/22 49/57/22
f 46/48/23 26/52/23 25/49/23
f 19/58/24 24/59/24 21/60/24
f 45/47/25 49/53/25 48/50/25
f 29/4/25 42/15/25 27/61/25
f 41/62/25 38/43/25 39/46/25
f 44/25/25 37/31/25 36/63/25
f 54/64/26 55/65/26 53/66/26
f 60/67/26 61/68/26 59/69/26
f 67/70/26 68/71/26 65/72/26
f 73/73/27 60/74/27 72/75/27
f 83/76/28 66/77/28 64/78/28
f 77/79/29 55/65/29 76/80/29
f 72/81/30 58/82/30 86/83/30
f 84/84/31 66/85/31 80/86/31
f 82/87/32 68/88/32 81/89/32
f 81/90/33 67/70/33 85/91/33
f 74/92/34 53/93/34 75/94/34
f 79/95/35 52/96/35 74/92/35
f 70/97/36 61/68/36 71/98/36
f 76/80/37 51/99/37 78/100/37
f 69/101/38 62/102/38 70/103/38
f 81/104/39 85/105/39 84/106/39
f 78/107/39 79/108/39 74/109/39
f 72/110/39 86/111/39 69/112/39
f 75/113/40 56/114/40 77/115/40
f 83/76/41 65/116/41 82/117/41
f 86/83/42 59/118/42 69/119/42
f 85/91/43 63/120/43 84/121/43
f 71/98/44 57/122/44 73/123/44
f 78/124/45 54/125/45 79/126/45
f 90/127/39 91/128/39 92/129/39
f 88/130/46 96/131/46 89/132/46
f 90/127/26 89/132/26 96/131/26
f 87/133/39 95/134/39 88/130/39
f 93/135/47 95/134/47 94/136/47
f 91/128/48 93/135/48 94/136/48
f 105/137/47 101/138/47 100/139/47
f 98/140/26 101/141/26 99/142/26
f 105/137/46 98/143/46 102/144/46
f 88/145/25 90/146/25 87/147/25
f 87/148/25 102/144/25 97/149/25
f 104/150/39 105/137/39 102/144/39
f 104/150/48 87/148/48 99/151/48
f 4/1/1 28/152/1 27/2/1
f 29/4/2 30/153/2 3/5/2
f 1/7/3 27/61/3 42/8/3
f 31/10/4 28/152/4 4/1/4
f 30/12/5 31/154/5 5/13/5
f 2/6/6 6/155/6 42/15/6
f 10/16/7 32/156/7 36/17/7
f 8/19/8 37/31/8 35/20/8
f 7/22/9 36/63/9 43/23/9
f 44/25/10 32/156/10 10/16/10
f 35/27/11 44/157/11 11/28/11
f 8/19/12 12/158/12 43/30/12
f 16/32/13 41/62/13 34/33/13
f 40/35/14 38/159/14 15/36/14
f 13/38/15 34/160/15 39/39/15
f 33/41/16 41/62/16 16/32/16
f 38/43/17 33/161/17 17/44/17
f 14/37/18 18/162/18 39/46/18
f 20/163/19 19/58/19 25/49/19
f 19/58/19 45/47/19 25/49/19
f 48/50/20 50/54/20 23/51/20
f 49/53/21 22/164/21 23/51/21
f 47/55/22 21/165/22 22/56/22
f 46/48/23 48/50/23 26/52/23
f 21/60/24 47/166/24 45/47/24
f 45/47/24 19/58/24 21/60/24
f 48/50/25 46/48/25 45/47/25
f 45/47/25 47/55/25 49/53/25
f 49/53/25 50/54/25 48/50/25
f 27/61/25 28/152/25 29/4/25
f 28/152/25 31/10/25 29/4/25
f 31/10/25 30/12/25 29/4/25
f 39/46/25 34/33/25 41/62/25
f 41/62/25 33/41/25 38/43/25
f 38/43/25 40/35/25 39/46/25
f 36/63/25 32/156/25 44/25/25
f 44/25/25 35/27/25 37/31/25
f 37/31/25 43/30/25 36/63/25
f 53/66/26 52/96/26 54/64/26
f 54/64/26 51/167/26 55/65/26
f 55/65/26 56/168/26 53/66/26
f 59/69/26 58/82/26 60/67/26
f 60/67/26 57/169/26 61/68/26
f 61/68/26 62/170/26 59/69/26
f 65/72/26 64/78/26 66/77/26
f 66/77/26 63/171/26 65/72/26
f 63/171/26 67/70/26 65/72/26
f 73/73/27 57/169/27 60/74/27
f 83/76/28 80/172/28 66/77/28
f 77/79/29 56/168/29 55/65/29
f 72/81/30 60/67/30 58/82/30
f 84/84/31 63/171/31 66/85/31
f 82/87/32 65/72/32 68/88/32
f 81/90/33 68/71/33 67/70/33
f 74/92/34 52/96/34 53/93/34
f 79/95/35 54/64/35 52/96/35
f 70/97/36 62/170/36 61/68/36
f 76/80/37 55/65/37 51/99/37
f 69/101/38 59/69/38 62/102/38
f 84/106/39 80/173/39 83/174/39
f 83/174/39 82/175/39 84/106/39
f 82/175/39 81/104/39 84/106/39
f 74/109/39 75/176/39 78/107/39
f 75/176/39 77/177/39 78/107/39
f 77/177/39 76/178/39 78/107/39
f 69/112/39 70/179/39 72/110/39
f 70/179/39 71/180/39 72/110/39
f 71/180/39 73/181/39 72/110/39
f 75/113/40 53/66/40 56/114/40
f 83/76/41 64/78/41 65/116/41
f 86/83/42 58/82/42 59/118/42
f 85/91/43 67/70/43 63/120/43
f 71/98/44 61/68/44 57/122/44
f 78/124/45 51/167/45 54/125/45
f 88/130/46 95/134/46 96/131/46
f 93/135/26 91/128/26 96/131/26
f 91/128/26 90/127/26 96/131/26
f 87/133/39 94/136/39 95/134/39
f 93/135/47 96/131/47 95/134/47
f 94/136/48 87/133/48 91/128/48
f 87/133/48 90/127/48 91/128/48
f 105/137/47 103/182/47 101/138/47
f 98/140/26 100/183/26 101/141/26
f 100/139/46 98/143/46 105/137/46
f 98/143/46 97/149/46 102/144/46
f 88/145/25 89/184/25 90/146/25
f 87/148/25 104/150/25 102/144/25
f 104/150/39 103/182/39 105/137/39
f 101/138/48 103/182/48 99/151/48
f 103/182/48 104/150/48 99/151/48
