# Blender v2.82 (sub 7) OBJ File: 'house1.blend'
# www.blender.org
v 0.317509 0.750000 0.250001
v 0.265783 0.635200 0.250001
v 0.079225 0.616432 0.250000
v -0.016913 0.750000 0.250001
v 0.336291 0.527239 0.250001
v 0.200927 0.656980 0.250001
v 0.317509 0.750000 -0.249999
v -0.016913 0.750000 -0.249999
v 0.265783 0.635200 -0.249999
v 0.079225 0.616432 -0.250000
v -0.023791 0.422522 -0.249999
v 0.020886 0.604621 -0.249999
v 0.200927 0.656980 -0.249999
v 0.293949 0.289641 -0.249999
v 0.114889 0.345261 -0.249999
v 0.302914 0.250000 -0.249999
v 0.011814 0.250000 -0.249999
v 0.111573 0.292781 -0.249999
v 0.336291 0.527239 -0.249999
v 0.291615 0.345139 -0.249999
v 0.293949 0.289641 0.250001
v 0.114889 0.345261 0.250001
v 0.302914 0.250000 0.250001
v 0.011814 0.250000 0.250001
v -0.023791 0.422522 0.250001
v 0.111573 0.292781 0.250001
v 0.020886 0.604621 0.250001
v 0.291615 0.345139 0.250001
v 0.335310 0.106759 0.500000
v 0.197611 -0.020501 0.500000
v -0.022810 0.218001 0.500000
v 0.233275 0.958329 0.500000
v -0.030308 0.768612 0.500000
v 0.046717 0.939560 0.500000
v 0.342808 0.806149 0.500000
v 0.079225 0.616432 0.500000
v 0.265783 0.635200 0.500000
v 0.293949 0.289641 0.500000
v 0.114889 0.345261 0.500000
v 0.200927 0.656980 0.500000
v 0.336291 0.527239 0.500000
v 0.111573 0.292781 0.500000
v 0.291615 0.345139 0.500000
v -0.023791 0.422522 0.500000
v 0.020886 0.604621 0.500000
v 0.018551 0.035120 0.500000
v 0.197611 -0.020501 -0.500000
v 0.335310 0.106759 -0.500000
v 0.293949 0.289641 -0.500000
v -0.022810 0.218001 -0.500000
v 0.114889 0.345261 -0.500000
v 0.265783 0.635200 -0.500000
v 0.342808 0.806149 -0.500000
v 0.046717 0.939560 -0.500000
v 0.233275 0.958329 -0.500000
v -0.030308 0.768612 -0.500000
v 0.079225 0.616432 -0.500000
v -0.023791 0.422522 -0.500000
v 0.336291 0.527239 -0.500000
v 0.291615 0.345139 -0.500000
v 0.111573 0.292781 -0.500000
v 0.020886 0.604621 -0.500000
v 0.200927 0.656980 -0.500000
v 0.018551 0.035120 -0.500000
v -0.437500 0.312500 0.250000
v 0.062500 0.312500 0.250000
v -0.437500 0.312500 -0.250000
v 0.062500 0.312500 -0.250000
v -0.437500 0.250000 -0.250000
v -0.437500 0.250000 0.250000
v 0.062500 0.250000 0.250000
v 0.062500 0.250000 -0.250000
v -0.437500 0.250000 -0.187500
v -0.375000 0.250000 -0.187500
v -0.437500 0.250000 -0.250000
v -0.375000 0.250000 -0.250000
v -0.437500 0.000000 -0.250000
v -0.437500 0.000000 -0.187500
v -0.375000 0.000000 -0.187500
v -0.375000 0.000000 -0.250000
v -0.437500 0.250000 0.250000
v -0.375000 0.250000 0.250000
v -0.437500 0.250000 0.187500
v -0.375000 0.250000 0.187500
v -0.437500 0.000000 0.187500
v -0.437500 0.000000 0.250000
v -0.375000 0.000000 0.250000
v -0.375000 0.000000 0.187500
v 0.250000 0.687500 0.187500
v 0.250000 0.312500 0.187500
v 0.281250 0.687500 0.133373
v 0.281250 0.312500 0.133373
v 0.412380 0.687500 0.281250
v 0.412380 0.312500 0.281250
v 0.443630 0.687500 0.227123
v 0.443630 0.312500 0.227123
v 0.250000 0.750000 0.250000
v 0.250000 0.250000 0.250000
v 0.250000 0.750000 -0.250000
v 0.250000 0.250000 -0.250000
v 0.250000 0.687500 0.187500
v 0.250000 0.687500 -0.187500
v 0.250000 0.312500 0.187500
v 0.250000 0.312500 -0.187500
v 0.062500 0.750000 -0.250000
v 0.062500 0.250000 -0.250000
v 0.062500 0.750000 0.250000
v 0.062500 0.250000 0.250000
v 0.062500 0.687500 -0.187500
v 0.062500 0.687500 0.187500
v 0.062500 0.312500 -0.187500
v 0.062500 0.312500 0.187500
v 0.250000 0.687500 -0.187500
v 0.250000 0.312500 -0.187500
v 0.281250 0.687500 -0.133373
v 0.281250 0.312500 -0.133373
v 0.412380 0.687500 -0.281250
v 0.412380 0.312500 -0.281250
v 0.443630 0.687500 -0.227123
v 0.443630 0.312500 -0.227123
v -0.343750 0.187500 -0.187500
v -0.093750 0.187500 -0.187500
v -0.343750 0.187500 -0.375000
v -0.343750 0.500000 -0.375000
v -0.343750 0.500000 -0.437500
v -0.093750 0.500000 -0.437500
v -0.093750 0.500000 -0.375000
v -0.093750 0.187500 -0.375000
v -0.343750 0.125000 -0.187500
v -0.093750 0.125000 -0.187500
v -0.343750 0.125000 -0.437500
v -0.093750 0.125000 -0.437500
v -0.343750 0.125000 -0.375000
v -0.281250 0.125000 -0.375000
v -0.343750 0.125000 -0.437500
v -0.281250 0.125000 -0.437500
v -0.343750 0.000000 -0.375000
v -0.281250 0.000000 -0.375000
v -0.343750 0.000000 -0.437500
v -0.281250 0.000000 -0.437500
v -0.156250 0.125000 -0.375000
v -0.093750 0.125000 -0.375000
v -0.156250 0.125000 -0.437500
v -0.093750 0.125000 -0.437500
v -0.156250 0.000000 -0.375000
v -0.093750 0.000000 -0.375000
v -0.156250 0.000000 -0.437500
v -0.093750 0.000000 -0.437500
v -0.343750 0.125000 -0.187500
v -0.281250 0.125000 -0.187500
v -0.343750 0.125000 -0.250000
v -0.281250 0.125000 -0.250000
v -0.343750 0.000000 -0.187500
v -0.281250 0.000000 -0.187500
v -0.343750 0.000000 -0.250000
v -0.281250 0.000000 -0.250000
v -0.156250 0.125000 -0.187500
v -0.093750 0.125000 -0.187500
v -0.156250 0.125000 -0.250000
v -0.093750 0.125000 -0.250000
v -0.156250 0.000000 -0.187500
v -0.093750 0.000000 -0.187500
v -0.156250 0.000000 -0.250000
v -0.093750 0.000000 -0.250000
v -0.500000 1.427832 0.500000
v 0.443029 0.811205 0.500000
v 0.474279 0.865332 0.500000
v -0.500000 1.355663 0.500000
v -0.500000 1.427832 -0.500000
v 0.443029 0.811205 -0.500000
v -0.500000 1.355663 -0.500000
v 0.474279 0.865332 -0.500000
v 0.474279 0.865332 0.000000
v -0.500000 1.427832 0.000000
vt 0.451154 0.450783
vt 0.466765 0.401527
vt 0.462372 0.440313
vt 0.850521 0.073635
vt 0.801562 0.046192
vt 0.839893 0.050048
vt 0.286408 0.448983
vt 0.270797 0.400305
vt 0.288715 0.364452
vt 0.887798 0.671658
vt 0.825457 0.624903
vt 0.887798 0.624903
vt 0.825457 0.578147
vt 0.887798 0.578147
vt 0.887798 0.718414
vt 0.825457 0.765169
vt 0.825457 0.718414
vt 0.825457 0.671658
vt 0.275141 0.439235
vt 0.218945 0.400305
vt 0.572819 0.240708
vt 0.641105 0.291923
vt 0.572819 0.291922
vt 0.887798 0.811925
vt 0.887798 0.765169
vt 0.887798 0.858680
vt 0.825457 0.811925
vt 0.781810 0.176367
vt 0.850521 0.176367
vt 0.542394 0.160832
vt 0.593291 0.072676
vt 0.644188 0.160832
vt 0.367963 0.240708
vt 0.436248 0.291922
vt 0.367963 0.291922
vt 0.367963 0.343137
vt 0.641105 0.394351
vt 0.367962 0.394351
vt 0.572819 0.326315
vt 0.641105 0.343137
vt 0.572818 0.503043
vt 0.436251 0.503043
vt 0.367963 0.496779
vt 0.761692 0.670883
vt 0.824006 0.717619
vt 0.761692 0.717619
vt 0.824006 0.764354
vt 0.761692 0.764354
vt 0.520670 0.293857
vt 0.218945 0.233446
vt 0.521160 0.236060
vt 0.521140 0.440313
vt 0.520180 0.401527
vt 0.761692 0.811089
vt 0.824006 0.857825
vt 0.761692 0.857825
vt 0.520180 0.351655
vt 0.218945 0.291244
vt 0.218945 0.349041
vt 0.824006 0.811089
vt 0.761692 0.624148
vt 0.824006 0.577412
vt 0.824006 0.624148
vt 0.643813 0.160967
vt 0.540514 0.160967
vt 0.592163 0.071507
vt 0.540496 0.160555
vt 0.540496 0.100915
vt 0.592145 0.071095
vt 0.592163 0.071468
vt 0.643813 0.101288
vt 0.643813 0.160928
vt 0.824006 0.670883
vt 0.522044 0.548375
vt 0.218945 0.496533
vt 0.521140 0.491714
vt 0.367962 0.445565
vt 0.641105 0.496779
vt 0.641105 0.445565
vt 0.759525 0.057863
vt 0.865942 0.164280
vt 0.810456 0.113774
vt 0.855930 0.174562
vt 0.749513 0.068145
vt 0.805000 0.118651
vt 0.828021 0.067329
vt 0.748501 0.087209
vt 0.748501 0.067329
vt 0.828021 0.087209
vt 0.748501 0.107089
vt 0.828021 0.107089
vt 0.748501 0.126969
vt 0.886173 0.046094
vt 0.827930 0.060655
vt 0.827930 0.046094
vt 0.886173 0.060655
vt 0.827930 0.075215
vt 0.886173 0.075216
vt 0.827930 0.089776
vt 0.806837 0.052560
vt 0.826717 0.171839
vt 0.806837 0.171839
vt 0.795873 0.176667
vt 0.815753 0.057387
vt 0.815753 0.176667
vt 0.886357 0.052560
vt 0.826717 0.052560
vt 0.825252 0.065688
vt 0.810692 0.109370
vt 0.810692 0.065688
vt 0.747197 0.171839
vt 0.751850 0.109970
vt 0.795531 0.095409
vt 0.795531 0.109970
vt 0.788040 0.122142
vt 0.793665 0.161349
vt 0.788067 0.166954
vt 0.828141 0.100129
vt 0.818879 0.079227
vt 0.828117 0.068576
vt 0.788029 0.105337
vt 0.832842 0.105310
vt 0.795059 0.063974
vt 0.793769 0.100580
vt 0.827274 0.161329
vt 0.832879 0.166927
vt 0.793644 0.127740
vt 0.832852 0.122115
vt 0.827254 0.127720
vt 0.798912 0.068845
vt 0.832879 0.064259
vt 0.807593 0.077814
vt 0.859049 0.131385
vt 0.769548 0.116468
vt 0.859049 0.116468
vt 0.871612 0.090376
vt 0.886173 0.177740
vt 0.871612 0.177740
vt 0.769548 0.176135
vt 0.769548 0.131385
vt 0.765549 0.149702
vt 0.825189 0.129823
vt 0.825189 0.149702
vt 0.859049 0.071717
vt 0.826007 0.129004
vt 0.845888 0.069364
vt 0.845888 0.129004
vt 0.811367 0.078641
vt 0.773778 0.165739
vt 0.811478 0.056682
vt 0.841757 0.073018
vt 0.821772 0.072586
vt 0.844962 0.187128
vt 0.784634 0.160349
vt 0.849231 0.081226
vt 0.853165 0.194474
vt 0.842431 0.073227
vt 0.853165 0.047624
vt 0.821982 0.073720
vt 0.828840 0.107089
vt 0.868600 0.087209
vt 0.868600 0.107089
vt 0.828840 0.087209
vt 0.868600 0.067329
vt 0.828840 0.126969
vt 0.868600 0.126969
vt 0.856452 0.119497
vt 0.841891 0.090376
vt 0.856452 0.090376
vt 0.841891 0.119497
vt 0.827331 0.090376
vt 0.871012 0.119497
vt 0.871012 0.090376
vt 0.788261 0.167548
vt 0.768381 0.127788
vt 0.788261 0.127788
vt 0.768381 0.167548
vt 0.748501 0.127788
vt 0.808141 0.167548
vt 0.808141 0.127788
vt 0.780971 0.094809
vt 0.766410 0.065688
vt 0.780971 0.065688
vt 0.766410 0.094809
vt 0.751850 0.065688
vt 0.795532 0.094809
vt 0.795532 0.065688
vt 0.607068 0.233583
vt 0.260707 0.551662
vt 0.260707 0.233583
vt 0.458442 0.390689
vt 0.324655 0.390689
vt 0.324655 0.373966
vt 0.146255 0.329143
vt -0.000584 -0.001245
vt 0.146255 -0.001245
vt 0.513963 0.421284
vt 0.251065 0.406195
vt 0.522674 0.406195
vt 0.039955 -0.002730
vt 0.187170 0.328504
vt 0.039955 0.328504
vt 0.446912 0.364924
vt 0.781810 0.073635
vt 0.218945 0.439235
vt 0.641105 0.240708
vt 0.825457 0.858680
vt 0.593291 0.190218
vt 0.542394 0.102062
vt 0.644188 0.102062
vt 0.436248 0.240708
vt 0.436248 0.326315
vt 0.436251 0.547996
vt 0.367963 0.547996
vt 0.641105 0.547994
vt 0.572819 0.547994
vt 0.761692 0.577412
vt 0.643813 0.101327
vt 0.592164 0.190787
vt 0.540514 0.101327
vt 0.643795 0.100915
vt 0.643795 0.160555
vt 0.592145 0.190375
vt 0.592163 0.190748
vt 0.540514 0.160928
vt 0.540514 0.101288
vt 0.219848 0.553194
vt 0.865942 0.057863
vt 0.749513 0.174562
vt 0.828021 0.126969
vt 0.886173 0.089776
vt 0.795873 0.057387
vt 0.886357 0.171839
vt 0.825252 0.109370
vt 0.747197 0.052560
vt 0.751850 0.095409
vt 0.816883 0.089396
vt 0.807562 0.088237
vt 0.886173 0.090376
vt 0.859049 0.176135
vt 0.765549 0.129823
vt 0.769548 0.071717
vt 0.826007 0.069364
vt 0.828840 0.067329
vt 0.827331 0.119497
vt 0.748501 0.167548
vt 0.751850 0.094809
vt 0.607068 0.551662
vt 0.592228 0.373966
vt 0.592228 0.390689
vt -0.000584 0.329143
vt 0.251065 0.421284
vt 0.187170 -0.002730
vn 0.0000 0.0000 -1.0000
vn -0.0000 0.0000 1.0000
vn 0.0000 1.0000 0.0000
vn -0.9712 0.2383 0.0000
vn -0.6920 -0.7219 0.0000
vn 0.6920 0.7219 0.0000
vn -0.2792 0.9602 0.0000
vn 0.2966 0.9550 0.0000
vn 0.1001 -0.9950 0.0000
vn 0.9712 -0.2383 0.0000
vn 0.2792 -0.9602 0.0000
vn 0.0000 -1.0000 0.0000
vn 0.8116 0.5842 0.0000
vn 0.9117 -0.4108 0.0000
vn -0.8116 -0.5842 0.0000
vn -0.2966 -0.9550 0.0000
vn -0.9754 -0.2206 0.0000
vn -0.6787 0.7344 0.0000
vn 0.6787 -0.7344 0.0000
vn -0.9117 0.4108 0.0000
vn 0.9754 0.2206 0.0000
vn -0.1001 0.9950 0.0000
vn -1.0000 0.0000 0.0000
vn 1.0000 0.0000 0.0000
vn -0.8660 -0.0000 -0.5000
vn 0.8660 0.0000 0.5000
vn 0.5000 0.0000 -0.8660
vn -0.5000 -0.0000 0.8660
vn -0.8660 -0.0000 0.5000
vn 0.8660 0.0000 -0.5000
vn 0.5000 0.0000 0.8660
vn -0.5000 -0.0000 -0.8660
vn -0.5000 -0.8660 0.0000
vn 0.8660 -0.5000 0.0000
vn 0.5000 0.8660 0.0000
s off
f 23/1/1 22/2/1 21/3/1
f 7/4/2 10/5/2 9/6/2
f 16/7/2 15/8/2 17/9/2
f 17/9/3 23/1/3 16/7/3
f 12/10/4 58/11/4 11/12/4
f 11/12/5 61/13/5 18/14/5
f 13/15/6 59/16/6 63/17/6
f 13/15/7 62/18/7 12/10/7
f 14/19/8 51/20/8 15/8/8
f 10/21/9 52/22/9 9/23/9
f 20/24/10 59/16/10 19/25/10
f 18/26/11 60/27/11 20/24/11
f 4/28/12 7/4/12 1/29/12
f 18/30/2 19/31/2 12/32/2
f 36/33/9 2/34/9 37/35/9
f 35/36/13 55/37/13 32/38/13
f 35/36/14 7/39/14 53/40/14
f 8/41/15 4/42/15 33/43/15
f 41/44/6 6/45/6 40/46/6
f 40/46/7 27/47/7 45/48/7
f 46/49/16 47/50/16 30/51/16
f 38/52/8 22/2/8 39/53/8
f 44/54/5 26/55/5 42/56/5
f 31/57/17 64/58/17 46/49/17
f 31/57/18 17/9/18 50/59/18
f 45/48/4 25/60/4 44/54/4
f 43/61/11 26/62/11 28/63/11
f 42/64/2 41/65/2 45/66/2
f 33/67/2 36/68/2 37/69/2
f 31/70/2 46/71/2 30/72/2
f 43/61/10 5/73/10 41/44/10
f 30/74/19 48/75/19 29/76/19
f 34/77/20 56/78/20 33/43/20
f 29/76/21 16/7/21 23/1/21
f 32/38/22 54/79/22 34/77/22
f 66/80/3 67/81/3 65/82/3
f 69/83/12 71/84/12 70/85/12
f 69/83/23 65/82/23 67/81/23
f 70/85/2 66/80/2 65/82/2
f 77/86/23 73/87/23 75/88/23
f 78/89/2 74/90/2 73/87/2
f 79/91/24 76/92/24 74/90/24
f 85/93/23 81/94/23 83/95/23
f 86/96/2 82/97/2 81/94/2
f 87/98/24 84/99/24 82/97/24
f 89/100/25 92/101/25 90/102/25
f 96/103/26 93/104/26 94/105/26
f 95/106/27 92/101/27 91/107/27
f 92/108/12 94/109/12 90/110/12
f 94/111/28 89/100/28 90/102/28
f 93/112/3 91/113/3 89/114/3
f 97/115/24 102/116/24 99/117/24
f 112/118/3 104/119/3 111/120/3
f 107/121/23 112/118/23 108/122/23
f 105/123/23 110/124/23 107/121/23
f 99/117/24 104/125/24 100/126/24
f 101/127/24 98/128/24 103/129/24
f 100/126/24 103/129/24 98/128/24
f 109/130/23 106/131/23 111/120/23
f 108/122/23 111/120/23 106/131/23
f 102/132/12 110/124/12 109/130/12
f 111/120/2 102/132/2 109/130/2
f 98/128/2 107/121/2 108/122/2
f 116/133/29 113/134/29 114/135/29
f 117/136/30 120/137/30 118/138/30
f 116/133/31 119/139/31 115/140/31
f 116/141/12 118/142/12 120/143/12
f 113/134/32 118/144/32 114/135/32
f 115/145/3 117/146/3 113/147/3
f 123/148/23 125/149/23 131/150/23
f 122/151/3 123/148/3 121/152/3
f 127/153/3 125/149/3 124/154/3
f 128/155/2 124/154/2 123/148/2
f 128/155/24 126/156/24 127/153/24
f 128/155/24 130/157/24 132/158/24
f 123/148/23 129/159/23 121/152/23
f 121/152/2 130/157/2 122/151/2
f 130/157/12 131/150/12 132/158/12
f 137/160/2 134/161/2 133/162/2
f 138/163/24 136/164/24 134/161/24
f 139/165/23 133/162/23 135/166/23
f 145/167/2 142/168/2 141/169/2
f 146/170/24 144/171/24 142/168/24
f 147/172/23 141/169/23 143/173/23
f 153/174/2 150/175/2 149/176/2
f 154/177/24 152/178/24 150/175/24
f 155/179/23 149/176/23 151/180/23
f 161/181/2 158/182/2 157/183/2
f 162/184/24 160/185/24 158/182/24
f 163/186/23 157/183/23 159/187/23
f 168/188/33 170/189/33 166/190/33
f 173/191/34 167/192/34 166/193/34
f 174/194/35 167/195/35 173/196/35
f 168/197/2 167/198/2 165/199/2
f 169/200/35 173/201/35 172/202/35
f 23/1/1 24/203/1 22/2/1
f 7/4/2 8/204/2 10/5/2
f 16/7/2 14/19/2 15/8/2
f 17/9/3 24/203/3 23/1/3
f 12/10/4 62/18/4 58/11/4
f 11/12/5 58/11/5 61/13/5
f 13/15/6 19/25/6 59/16/6
f 13/15/7 63/17/7 62/18/7
f 14/19/8 49/205/8 51/20/8
f 10/21/9 57/206/9 52/22/9
f 20/24/10 60/27/10 59/16/10
f 18/26/11 61/207/11 60/27/11
f 4/28/12 8/204/12 7/4/12
f 12/32/2 11/208/2 18/30/2
f 18/30/2 20/209/2 19/31/2
f 19/31/2 13/210/2 12/32/2
f 36/33/9 3/211/9 2/34/9
f 35/36/13 53/40/13 55/37/13
f 35/36/14 37/35/14 1/212/14
f 37/35/14 2/34/14 1/212/14
f 9/23/14 52/22/14 7/39/14
f 52/22/14 53/40/14 7/39/14
f 35/36/14 1/212/14 7/39/14
f 3/213/15 36/214/15 4/42/15
f 36/214/15 33/43/15 4/42/15
f 56/78/15 57/215/15 8/41/15
f 57/215/15 10/216/15 8/41/15
f 56/78/15 8/41/15 33/43/15
f 41/44/6 5/73/6 6/45/6
f 40/46/7 6/45/7 27/47/7
f 46/49/16 64/58/16 47/50/16
f 38/52/8 21/3/8 22/2/8
f 44/54/5 25/60/5 26/55/5
f 31/57/17 50/59/17 64/58/17
f 31/57/18 39/53/18 24/203/18
f 39/53/18 22/2/18 24/203/18
f 15/8/18 51/20/18 17/9/18
f 51/20/18 50/59/18 17/9/18
f 31/57/18 24/203/18 17/9/18
f 45/48/4 27/47/4 25/60/4
f 43/61/11 42/217/11 26/62/11
f 45/66/2 44/218/2 42/64/2
f 42/64/2 43/219/2 41/65/2
f 41/65/2 40/220/2 45/66/2
f 37/69/2 35/221/2 33/67/2
f 35/221/2 32/222/2 33/67/2
f 32/222/2 34/223/2 33/67/2
f 30/72/2 29/224/2 31/70/2
f 29/224/2 38/225/2 31/70/2
f 38/225/2 39/226/2 31/70/2
f 43/61/10 28/63/10 5/73/10
f 30/74/19 47/227/19 48/75/19
f 34/77/20 54/79/20 56/78/20
f 21/3/21 38/52/21 23/1/21
f 38/52/21 29/76/21 23/1/21
f 29/76/21 48/75/21 16/7/21
f 48/75/21 49/205/21 16/7/21
f 49/205/21 14/19/21 16/7/21
f 32/38/22 55/37/22 54/79/22
f 66/80/3 68/228/3 67/81/3
f 69/83/12 72/229/12 71/84/12
f 69/83/23 70/85/23 65/82/23
f 70/85/2 71/84/2 66/80/2
f 77/86/23 78/89/23 73/87/23
f 78/89/2 79/91/2 74/90/2
f 79/91/24 80/230/24 76/92/24
f 85/93/23 86/96/23 81/94/23
f 86/96/2 87/98/2 82/97/2
f 87/98/24 88/231/24 84/99/24
f 89/100/25 91/107/25 92/101/25
f 96/103/26 95/232/26 93/104/26
f 95/106/27 96/233/27 92/101/27
f 92/108/12 96/234/12 94/109/12
f 94/111/28 93/235/28 89/100/28
f 93/112/3 95/236/3 91/113/3
f 97/115/24 101/127/24 102/116/24
f 112/118/3 103/237/3 104/119/3
f 107/121/23 110/124/23 112/118/23
f 105/123/23 109/130/23 110/124/23
f 99/117/24 102/116/24 104/125/24
f 101/127/24 97/115/24 98/128/24
f 100/126/24 104/125/24 103/129/24
f 109/130/23 105/123/23 106/131/23
f 108/122/23 112/118/23 111/120/23
f 102/132/12 101/238/12 110/124/12
f 111/120/2 104/119/2 102/132/2
f 98/128/2 97/115/2 107/121/2
f 116/133/29 115/140/29 113/134/29
f 117/136/30 119/239/30 120/137/30
f 116/133/31 120/240/31 119/139/31
f 116/141/12 114/241/12 118/142/12
f 113/134/32 117/242/32 118/144/32
f 115/145/3 119/243/3 117/146/3
f 123/148/23 124/154/23 125/149/23
f 122/151/3 128/155/3 123/148/3
f 127/153/3 126/156/3 125/149/3
f 128/155/2 127/153/2 124/154/2
f 128/155/24 132/158/24 126/156/24
f 128/155/24 122/151/24 130/157/24
f 123/148/23 131/150/23 129/159/23
f 121/152/2 129/159/2 130/157/2
f 130/157/12 129/159/12 131/150/12
f 137/160/2 138/163/2 134/161/2
f 138/163/24 140/244/24 136/164/24
f 139/165/23 137/160/23 133/162/23
f 145/167/2 146/170/2 142/168/2
f 146/170/24 148/245/24 144/171/24
f 147/172/23 145/167/23 141/169/23
f 153/174/2 154/177/2 150/175/2
f 154/177/24 156/246/24 152/178/24
f 155/179/23 153/174/23 149/176/23
f 161/181/2 162/184/2 158/182/2
f 162/184/24 164/247/24 160/185/24
f 163/186/23 161/181/23 157/183/23
f 168/188/33 171/248/33 170/189/33
f 166/193/34 170/249/34 173/191/34
f 170/249/34 172/250/34 173/191/34
f 174/194/35 165/251/35 167/195/35
f 168/197/2 166/252/2 167/198/2
f 169/200/35 174/253/35 173/201/35
