# Blender v2.82 (sub 7) OBJ File: 'house1.blend'
# www.blender.org
v -0.278785 0.304300 0.250000
v -0.217889 -0.014699 0.250000
v -0.033715 0.020460 0.250000
v -0.094611 0.339459 0.250000
v 0.027924 0.197538 0.250000
v -0.340424 0.127221 0.250000
v -0.147580 0.662179 0.233297
v -0.322791 0.388738 0.233297
v -0.164920 0.287580 0.233297
v 0.010291 0.561021 0.233297
v 0.001621 0.373722 0.233297
v -0.314121 0.576038 0.233297
v -0.285097 0.923596 0.258352
v -0.209793 0.607687 0.258352
v -0.027403 0.651164 0.258352
v -0.102707 0.967072 0.258352
v 0.026140 0.830856 0.258352
v -0.338640 0.743903 0.258352
v 0.026140 0.830856 -0.500000
v -0.102707 0.967072 -0.500000
v -0.322791 0.388738 -0.500000
v -0.164920 0.287580 -0.500000
v 0.001621 0.373722 -0.500000
v 0.010291 0.561021 -0.500000
v -0.147580 0.662179 -0.500000
v -0.314121 0.576038 -0.500000
v -0.033715 0.020460 -0.500000
v -0.217889 -0.014699 -0.500000
v -0.340424 0.127221 -0.500000
v -0.094611 0.339459 -0.500000
v -0.278785 0.304300 -0.500000
v 0.027924 0.197538 -0.500000
v -0.338640 0.743903 -0.500000
v -0.209793 0.607687 -0.500000
v -0.285097 0.923596 -0.500000
v -0.027403 0.651164 -0.500000
v -0.187500 0.920565 0.163228
v -0.187500 0.606492 0.080603
v -0.187500 0.654195 -0.100728
v -0.187500 0.739677 0.212580
v -0.187500 0.968269 -0.018103
v -0.187500 0.835084 -0.150080
v -0.187500 0.279749 0.177472
v -0.187500 -0.022936 0.059783
v -0.187500 0.045012 -0.114972
v -0.187500 0.094432 0.206005
v -0.187500 0.347697 0.002717
v -0.187500 0.230328 -0.143505
v -0.187500 0.651924 -0.030490
v -0.187500 0.439827 0.215444
v -0.187500 0.297837 0.092990
v -0.187500 0.616871 0.153704
v -0.187500 0.509933 -0.152944
v -0.187500 0.332890 -0.091204
v 0.187500 0.937501 0.098852
v 0.187500 0.937501 -0.048592
v 0.187500 0.920565 0.163228
v 0.187500 0.739677 0.212580
v 0.187500 0.606492 0.080603
v 0.187500 0.439827 0.215444
v 0.187500 0.094432 0.206005
v 0.187500 0.297837 0.092990
v 0.187500 0.616871 0.153704
v 0.187500 0.651924 -0.030490
v 0.187500 0.279749 0.177472
v 0.187500 0.835084 -0.150080
v 0.187500 0.654195 -0.100728
v 0.187500 0.045012 -0.114972
v 0.187500 0.230328 -0.143505
v 0.187500 0.509933 -0.152944
v 0.187500 0.332890 -0.091204
v 0.187500 0.347697 0.002717
v 0.187500 -0.022936 0.059783
v -0.187500 0.912498 0.024608
v -0.115269 1.000437 0.190207
v 0.209287 1.187819 0.196849
v -0.187500 0.958735 -0.049300
v -0.095343 1.011941 -0.134349
v 0.381527 1.287263 0.037892
v -0.187500 0.958735 0.111676
v 0.229212 1.199324 -0.127707
v 0.500000 0.968269 -0.018103
v 0.500000 0.937501 -0.048592
v 0.500000 0.912498 0.024608
v 0.500000 1.000437 0.190207
v 0.500000 1.187819 0.196849
v 0.500000 1.199324 -0.127707
v 0.500000 1.011941 -0.134349
v 0.500000 0.937501 0.098852
v 0.500000 1.287263 0.037892
v 0.187500 0.000000 0.250000
v 0.187500 0.937500 0.250000
v 0.187500 0.000000 -0.187500
v 0.187500 0.937500 -0.187500
v 0.250000 0.000000 0.250000
v 0.250000 0.875000 0.250000
v 0.250000 0.000000 0.187500
v 0.250000 0.875000 0.187500
v 0.250000 0.000000 -0.187500
v 0.250000 0.875000 -0.187500
v 0.250000 0.875000 -0.125000
v 0.250000 0.000000 -0.125000
v 0.500000 0.937500 -0.187500
v 0.500000 0.888063 -0.187500
v 0.500000 0.875000 -0.187500
v 0.500000 0.937500 0.250000
v 0.500000 0.875000 0.250000
v 0.500000 0.000000 0.187500
v 0.500000 0.875000 0.187500
v 0.500000 0.875000 -0.125000
v 0.500000 0.000000 -0.125000
v 0.250000 0.000000 -0.250000
v 0.000000 0.000000 -0.250000
v 0.250000 0.187500 -0.250000
v 0.000000 0.187500 -0.250000
v 0.187500 0.187500 -0.312500
v 0.062500 0.187500 -0.312500
v 0.187500 0.125000 -0.312500
v 0.062500 0.129613 -0.312500
v 0.125000 0.134212 -0.312500
v 0.187500 0.125000 -0.375000
v 0.187500 0.125000 -0.437500
v 0.187500 0.139672 -0.500000
v 0.062500 0.125000 -0.500000
v 0.062500 0.137018 -0.437500
v 0.062500 0.125000 -0.375000
v 0.125000 0.125000 -0.500000
v 0.125000 0.125000 -0.437500
v 0.125000 0.140274 -0.375000
v 0.000000 0.000000 -0.500000
v 0.000000 0.187500 -0.500000
v 0.062500 0.187500 -0.500000
v 0.250000 0.000000 -0.500000
v 0.250000 0.187500 -0.500000
v 0.187500 0.187500 -0.500000
v 0.250000 0.187500 -0.250000
v 0.000000 0.187500 -0.250000
v 0.187500 0.250000 -0.250000
v 0.062500 0.250000 -0.250000
v 0.250000 0.187500 -0.500000
v 0.000000 0.187500 -0.500000
v 0.187500 0.250000 -0.500000
v 0.062500 0.250000 -0.500000
v 0.500000 1.355663 0.187500
v 0.500000 1.500000 0.187500
v 0.500000 1.500000 0.312500
v 0.500000 1.355663 0.312500
v -0.411779 0.829247 0.312500
v 0.445873 1.324413 0.312500
v -0.465905 0.797997 0.312500
v -0.465905 0.797997 0.187500
v -0.528405 0.906250 0.187500
v -0.528405 0.906250 0.312500
v 0.500000 1.427832 0.187500
v -0.420152 0.896582 0.187500
v -0.388902 0.842455 0.187500
v -0.474279 0.865332 0.187500
v -0.443029 0.811205 0.187500
v 0.500000 1.427832 -0.500000
v -0.443029 0.811205 -0.500000
v 0.500000 1.355663 -0.500000
v -0.474279 0.865332 -0.500000
vt 1.000000 0.000000
vt 0.000000 0.300000
vt 0.000000 0.000000
vt 0.000000 0.300000
vt 1.000000 0.000000
vt 0.000000 0.000000
vt 0.000000 0.000000
vt 1.000000 0.300000
vt 0.000000 0.300000
vt 0.000000 0.300000
vt 0.000000 0.000000
vt 0.000000 0.300000
vt 1.000000 0.000000
vt 0.000000 0.000000
vt 1.000000 0.000000
vt 1.000000 0.000000
vt 0.000000 0.293319
vt 0.000000 0.000000
vt 0.000000 0.293319
vt 1.000000 0.000000
vt 0.000000 0.000000
vt 1.000000 0.000000
vt 0.000000 0.293319
vt 0.000000 0.000000
vt 0.000000 0.293319
vt 0.000000 0.000000
vt 0.000000 0.293319
vt 1.000000 0.000000
vt 0.000000 0.000000
vt 1.000000 0.293319
vt 0.000000 0.000000
vt 1.000000 0.303341
vt 0.000000 0.303341
vt 0.000000 0.303341
vt 1.000000 0.000000
vt 0.000000 0.000000
vt 1.000000 0.000000
vt 0.000000 0.303341
vt 0.000000 0.000000
vt 0.000000 0.000000
vt 1.000000 0.000000
vt 0.000000 0.000000
vt 1.000000 0.303341
vt 1.000000 0.000000
vt 1.000000 0.303341
vt 0.180617 0.546497
vt 0.306400 0.502714
vt 0.205591 0.415674
vt 0.305668 0.762440
vt 0.283710 0.688748
vt 0.208911 0.670918
vt 0.295613 0.574968
vt 0.162570 0.581126
vt 0.234425 0.693265
vt 1.000000 0.727273
vt 0.000000 1.000000
vt 1.000000 1.000000
vt 1.000000 0.727273
vt 0.000000 1.000000
vt 0.000000 0.727273
vt 0.000000 0.727273
vt 1.000000 1.000000
vt 0.000000 1.000000
vt 0.000000 0.727273
vt 1.000000 1.000000
vt 1.000000 0.727273
vt 1.000000 0.727273
vt 0.000000 1.000000
vt 0.000000 0.727273
vt 1.000000 0.727273
vt 0.000000 1.000000
vt 1.000000 1.000000
vt 0.000000 0.727273
vt 1.000000 1.000000
vt 1.000000 0.727273
vt 1.000000 0.727273
vt 0.000000 1.000000
vt 0.000000 0.727273
vt 1.000000 0.727273
vt 0.000000 0.727273
vt 0.000000 0.727273
vt 1.000000 1.000000
vt 1.000000 0.727273
vt 0.000000 0.727273
vt 1.000000 1.000000
vt 0.000000 1.000000
vt 0.000000 0.727273
vt 1.000000 0.727273
vt 0.000000 0.727273
vt 1.000000 1.000000
vt 1.000000 0.727273
vt 1.000000 1.000000
vt 1.000000 0.727273
vt 0.000000 0.727273
vt 0.000000 1.000000
vt 1.000000 0.727273
vt 0.000000 1.000000
vt 1.000000 0.586162
vt 0.000000 0.696936
vt 0.000000 0.696936
vt 1.000000 0.696936
vt 0.000000 0.932977
vt 0.000000 0.932977
vt 1.000000 0.711428
vt 0.000000 0.947469
vt 1.000000 0.711428
vt 1.000000 0.932977
vt 1.000000 0.932977
vt 0.000000 1.000000
vt 0.000000 0.947469
vt 0.000000 1.000000
vt 0.000000 0.727273
vt 0.355017 0.727273
vt 0.768983 0.727273
vt 0.000000 1.000000
vt 1.000000 1.000000
vt 1.000000 0.586162
vt 1.000000 0.000000
vt 1.000000 1.000000
vt 1.000000 1.000000
vt 0.500000 1.000000
vt 1.000000 1.000000
vt 1.000000 0.000000
vt 1.000000 0.000000
vt 1.000000 0.000000
vt 1.000000 1.000000
vt 0.500000 1.000000
vt 0.000000 1.000000
vt 0.000000 0.000000
vt 0.000000 1.000000
vt 0.500000 1.000000
vt 0.500000 1.000000
vt 0.000000 0.000000
vt 0.000000 1.000000
vt 0.000000 0.000000
vt 0.500000 0.000000
vt 0.500000 1.000000
vt 0.500000 1.000000
vt 0.500000 1.000000
vt 0.353022 0.667253
vt 0.268642 0.641621
vt 0.338958 0.641621
vt 0.000000 0.500000
vt 0.000000 0.000000
vt 0.000000 0.500000
vt 1.000000 0.000000
vt 0.000000 0.000000
vt 0.000000 0.000000
vt 0.000000 0.500000
vt 1.000000 0.000000
vt 1.000000 0.500000
vt 1.000000 0.333333
vt 1.000000 0.166667
vt 1.000000 0.000000
vt 1.000000 0.000000
vt 0.500000 0.000000
vt 0.500000 0.333333
vt 0.500000 0.166667
vt 0.500000 0.500000
vt 0.000000 0.166667
vt 0.000000 0.000000
vt 0.000000 0.500000
vt 0.000000 0.333333
vt 1.000000 0.500000
vt 1.000000 0.500000
vt 0.000000 0.000000
vt 0.000000 0.000000
vt 0.000000 0.000000
vt 0.000000 0.000000
vt 0.000000 0.000000
vt 0.000000 0.000000
vt 0.000000 0.000000
vt 0.000000 0.000000
vt 0.000000 1.000000
vt 0.000000 1.000000
vt 0.000000 1.000000
vt 1.000000 0.000000
vt 1.000000 1.000000
vt 1.000000 1.000000
vt 0.000000 1.000000
vt 0.000000 0.000000
vt 1.000000 0.000000
vt 0.000000 0.000000
vt 0.000000 0.710526
vt 0.000000 1.000000
vt 0.000000 1.000000
vt 0.000000 0.000000
vt 0.000000 0.000000
vt 0.000000 0.000000
vt 0.000000 1.000000
vt 1.000000 0.710526
vt 0.803043 0.587554
vt 0.831170 0.528361
vt 0.803043 0.528361
vt 0.966038 1.000000
vt 1.000000 1.000000
vt 0.966038 0.710526
vt 0.000000 1.000000
vt 1.000000 0.300000
vt 1.000000 0.300000
vt 1.000000 0.000000
vt 1.000000 0.300000
vt 1.000000 0.300000
vt 1.000000 0.293319
vt 1.000000 0.293319
vt 1.000000 0.293319
vt 1.000000 0.293319
vt 1.000000 0.000000
vt 1.000000 0.303341
vt 1.000000 0.303341
vt 0.000000 0.303341
vt 0.000000 0.303341
vt 1.000000 0.000000
vt 0.155339 0.473877
vt 0.256147 0.560916
vt 0.281121 0.430093
vt 0.156070 0.726780
vt 0.178029 0.800473
vt 0.252827 0.818303
vt 0.299168 0.651780
vt 0.227314 0.539640
vt 0.166126 0.657938
vt 1.000000 1.000000
vt 1.000000 0.727273
vt 0.000000 1.000000
vt 1.000000 1.000000
vt 0.000000 0.727273
vt 0.000000 1.000000
vt 1.000000 1.000000
vt 1.000000 1.000000
vt 0.000000 1.000000
vt 0.000000 1.000000
vt 1.000000 1.000000
vt 1.000000 0.696936
vt 0.000000 1.000000
vt 0.464955 1.000000
vt 0.000000 0.000000
vt 0.355017 0.500000
vt 1.000000 0.500000
vt 0.768983 0.500000
vt 0.000000 0.727273
vt 0.500000 0.000000
vt 0.353022 0.641621
vt 0.353022 0.646978
vt 0.254579 0.667253
vt 0.254579 0.641621
vt 0.268642 0.282780
vt 0.338958 0.282780
vt 1.000000 0.500000
vt 0.000000 0.710526
vt 0.000000 0.000000
vt 0.831170 0.587554
vn -0.1875 0.9823 0.0000
vn 0.1875 -0.9823 0.0000
vn -0.9444 0.3287 0.0000
vn 0.7569 0.6535 0.0000
vn 0.9444 -0.3287 0.0000
vn -0.7569 -0.6535 0.0000
vn 0.0000 0.0000 1.0000
vn 0.5395 0.8420 0.0000
vn -0.5395 -0.8420 0.0000
vn -0.4594 0.8882 0.0000
vn 0.9989 -0.0462 -0.0000
vn 0.4594 -0.8882 0.0000
vn -0.9989 0.0462 0.0000
vn -0.2319 0.9727 0.0000
vn 0.2319 -0.9727 0.0000
vn -0.9584 0.2856 0.0000
vn 0.7265 0.6872 0.0000
vn 0.9584 -0.2856 0.0000
vn -0.7265 -0.6872 0.0000
vn 0.0000 0.0000 -1.0000
vn 0.0000 -0.9671 -0.2544
vn 0.0000 0.9824 0.1869
vn 0.0000 0.2632 0.9647
vn -0.0000 -0.2632 -0.9647
vn 0.0000 -0.7799 0.6260
vn 0.0000 0.7799 -0.6260
vn 0.0000 -0.9824 -0.1869
vn 0.0000 0.1522 0.9884
vn 0.0000 -0.7039 0.7103
vn 0.0000 -0.6531 0.7573
vn 0.0000 0.6531 -0.7573
vn 0.0000 -0.3293 -0.9442
vn -0.0000 -0.1522 -0.9884
vn 0.0000 -0.9320 -0.3624
vn 0.0000 0.9320 0.3624
vn 0.0000 0.3293 0.9442
vn -0.0000 0.8832 -0.4690
vn -0.0000 0.0354 -0.9994
vn 0.0000 -0.0354 0.9994
vn -0.0000 -0.8478 -0.5304
vn 0.0000 -0.8832 0.4690
vn 0.0000 0.9671 0.2544
vn 0.0000 0.8478 0.5304
vn -0.0000 0.7039 -0.7103
vn 1.0000 0.0000 0.0000
vn 0.0000 1.0000 0.0000
vn -1.0000 0.0000 0.0000
vn 0.0000 -1.0000 0.0000
vn 0.1458 0.9893 0.0000
vn 0.2310 0.9451 -0.2310
vn -0.0732 0.9946 -0.0734
vn -0.2310 0.9451 -0.2310
vn 0.1855 0.9650 -0.1855
vn 0.7071 0.7071 0.0000
vn -0.7071 0.7071 0.0000
vn -0.5000 0.8660 0.0000
vn -0.8660 -0.5000 0.0000
vn 0.5000 -0.8660 0.0000
vn 0.2364 0.9671 0.0938
vn -0.2228 0.9491 0.2228
vn -0.2364 0.9671 0.0938
vn 0.1855 0.9650 0.1855
s off
f 4/1/1 31/2/1 1/3/1
f 28/4/2 3/5/2 2/6/2
f 6/7/3 31/8/3 29/9/3
f 32/10/4 4/1/4 5/11/4
f 27/12/5 5/13/5 3/14/5
f 6/15/6 28/4/6 2/6/6
f 5/13/7 1/3/7 2/6/7
f 10/16/8 25/17/8 7/18/8
f 21/19/9 9/20/9 8/21/9
f 7/22/10 26/23/10 12/24/10
f 23/25/11 10/16/11 11/26/11
f 22/27/12 11/28/12 9/29/12
f 8/21/13 26/30/13 21/19/13
f 12/24/7 8/21/7 11/28/7
f 13/31/14 20/32/14 35/33/14
f 34/34/15 15/35/15 14/36/15
f 13/37/16 33/38/16 18/39/16
f 17/40/17 20/32/17 16/41/17
f 15/42/18 19/43/18 17/44/18
f 14/36/19 33/45/19 34/34/19
f 17/44/7 13/31/7 14/36/7
f 31/46/20 32/47/20 28/48/20
f 19/49/20 36/50/20 34/51/20
f 23/52/20 21/53/20 25/54/20
f 67/55/21 38/56/21 39/57/21
f 64/58/22 52/59/22 63/60/22
f 58/61/23 37/62/23 40/63/23
f 67/64/24 42/65/24 66/66/24
f 61/67/25 44/68/25 73/69/25
f 72/70/26 48/71/26 47/72/26
f 62/73/27 54/74/27 71/75/27
f 65/76/28 46/77/28 61/78/28
f 58/79/29 38/56/29 59/80/29
f 60/81/30 51/82/30 62/83/30
f 64/84/31 53/85/31 49/86/31
f 71/87/32 53/85/32 70/88/32
f 68/89/33 48/90/33 69/91/33
f 73/69/34 45/92/34 68/93/34
f 65/94/35 47/72/35 43/95/35
f 63/96/36 50/97/36 60/81/36
f 79/98/37 87/99/37 81/100/37
f 81/101/38 88/102/38 78/103/38
f 76/104/39 85/105/39 86/106/39
f 78/107/40 88/108/40 84/109/40
f 84/109/41 85/105/41 75/110/41
f 37/111/42 57/112/42 55/113/42
f 86/106/43 79/98/43 76/104/43
f 56/114/44 42/115/44 41/116/44
f 90/117/45 86/106/45 85/105/45
f 91/118/7 96/119/7 92/120/7
f 92/120/46 103/121/46 94/122/46
f 92/120/47 93/123/47 91/118/47
f 97/124/45 96/119/45 95/125/45
f 98/126/48 107/127/48 96/119/48
f 100/128/20 93/129/20 94/130/20
f 104/131/20 100/128/20 103/121/20
f 110/132/20 102/133/20 101/134/20
f 101/134/45 99/135/45 100/128/45
f 93/129/48 102/133/48 97/124/48
f 98/126/7 108/136/7 109/137/7
f 101/134/48 105/138/48 110/132/48
f 106/139/7 96/119/7 107/127/7
f 103/140/45 109/141/45 110/142/45
f 131/143/46 117/144/46 132/145/46
f 112/146/7 115/147/7 113/148/7
f 113/148/47 131/143/47 130/149/47
f 114/150/46 117/144/46 115/147/46
f 135/151/47 122/152/47 121/153/47
f 116/154/20 118/155/20 120/156/20
f 121/153/49 120/156/49 118/155/49
f 121/153/50 128/157/50 129/158/50
f 122/152/46 127/159/46 128/157/46
f 120/156/51 126/160/51 119/161/51
f 128/157/52 126/160/52 129/158/52
f 128/157/53 124/162/53 125/163/53
f 133/164/45 114/150/45 112/146/45
f 125/163/45 117/144/45 126/160/45
f 134/165/46 116/154/46 114/150/46
f 127/159/20 133/164/20 130/149/20
f 136/166/48 141/167/48 140/168/48
f 143/169/46 138/170/46 142/171/46
f 142/171/54 136/166/54 140/168/54
f 138/170/7 137/172/7 136/166/7
f 139/173/55 141/167/55 137/172/55
f 141/167/20 142/171/20 140/168/20
f 147/174/7 148/175/7 149/176/7
f 145/177/56 153/178/56 146/179/56
f 153/178/7 150/180/7 148/175/7
f 144/181/20 152/182/20 145/177/20
f 150/180/57 152/182/57 151/183/57
f 148/175/58 150/180/58 151/183/58
f 162/184/57 158/185/57 157/186/57
f 155/187/7 158/188/7 156/189/7
f 162/184/56 155/190/56 159/191/56
f 145/192/45 147/193/45 144/194/45
f 144/195/45 159/191/45 154/196/45
f 161/197/20 162/184/20 159/191/20
f 161/197/58 144/195/58 156/198/58
f 4/1/1 30/199/1 31/2/1
f 28/4/2 27/200/2 3/5/2
f 6/7/3 1/201/3 31/8/3
f 32/10/4 30/199/4 4/1/4
f 27/12/5 32/202/5 5/13/5
f 6/15/6 29/203/6 28/4/6
f 2/6/7 3/14/7 5/13/7
f 5/13/7 4/1/7 1/3/7
f 1/3/7 6/7/7 2/6/7
f 10/16/8 24/204/8 25/17/8
f 21/19/9 22/205/9 9/20/9
f 7/22/10 25/206/10 26/23/10
f 23/25/11 24/204/11 10/16/11
f 22/27/12 23/207/12 11/28/12
f 8/21/13 12/208/13 26/30/13
f 8/21/7 9/29/7 11/28/7
f 11/28/7 10/16/7 7/18/7
f 7/18/7 12/24/7 11/28/7
f 13/31/14 16/41/14 20/32/14
f 34/34/15 36/209/15 15/35/15
f 13/37/16 35/210/16 33/38/16
f 17/40/17 19/211/17 20/32/17
f 15/42/18 36/212/18 19/43/18
f 14/36/19 18/213/19 33/45/19
f 14/36/7 15/42/7 17/44/7
f 17/44/7 16/41/7 13/31/7
f 13/31/7 18/39/7 14/36/7
f 28/48/20 29/214/20 31/46/20
f 31/46/20 30/215/20 32/47/20
f 32/47/20 27/216/20 28/48/20
f 34/51/20 33/217/20 35/218/20
f 35/218/20 20/219/20 34/51/20
f 20/219/20 19/49/20 34/51/20
f 25/54/20 24/220/20 23/52/20
f 23/52/20 22/221/20 21/53/20
f 21/53/20 26/222/20 25/54/20
f 67/55/21 59/80/21 38/56/21
f 64/58/22 49/223/22 52/59/22
f 58/61/23 57/224/23 37/62/23
f 67/64/24 39/225/24 42/65/24
f 61/67/25 46/226/25 44/68/25
f 72/70/26 69/227/26 48/71/26
f 62/73/27 51/228/27 54/74/27
f 65/76/28 43/229/28 46/77/28
f 58/79/29 40/230/29 38/56/29
f 60/81/30 50/97/30 51/82/30
f 64/84/31 70/88/31 53/85/31
f 71/87/32 54/231/32 53/85/32
f 68/89/33 45/232/33 48/90/33
f 73/69/34 44/68/34 45/92/34
f 65/94/35 72/70/35 47/72/35
f 63/96/36 52/233/36 50/97/36
f 79/98/37 90/117/37 87/99/37
f 81/101/38 87/234/38 88/102/38
f 76/104/39 75/110/39 85/105/39
f 84/109/40 74/235/40 78/107/40
f 74/235/40 77/236/40 78/107/40
f 80/237/41 74/235/41 75/110/41
f 74/235/41 84/109/41 75/110/41
f 55/113/42 89/238/42 82/239/42
f 82/239/42 41/116/42 55/113/42
f 41/116/42 37/111/42 55/113/42
f 86/106/43 90/117/43 79/98/43
f 41/116/44 82/239/44 56/114/44
f 82/239/44 83/240/44 56/114/44
f 56/114/44 66/241/44 42/115/44
f 85/105/45 84/109/45 90/117/45
f 84/109/45 88/102/45 90/117/45
f 88/102/45 87/99/45 90/117/45
f 91/118/7 95/125/7 96/119/7
f 92/120/46 106/139/46 103/121/46
f 92/120/47 94/122/47 93/123/47
f 97/124/45 98/126/45 96/119/45
f 98/126/48 109/137/48 107/127/48
f 100/128/20 99/135/20 93/129/20
f 105/138/20 100/128/20 104/131/20
f 100/128/20 94/130/20 103/121/20
f 110/132/20 111/242/20 102/133/20
f 101/134/45 102/133/45 99/135/45
f 95/125/48 91/118/48 97/124/48
f 91/118/48 93/129/48 97/124/48
f 93/129/48 99/135/48 102/133/48
f 102/133/48 111/242/48 108/136/48
f 102/133/48 108/136/48 97/124/48
f 98/126/7 97/124/7 108/136/7
f 101/134/48 100/128/48 105/138/48
f 106/139/7 92/120/7 96/119/7
f 105/243/45 104/244/45 110/142/45
f 104/244/45 103/140/45 110/142/45
f 103/140/45 106/245/45 109/141/45
f 106/245/45 107/246/45 109/141/45
f 109/141/45 108/247/45 111/248/45
f 109/141/45 111/248/45 110/142/45
f 131/143/46 115/147/46 117/144/46
f 112/146/7 114/150/7 115/147/7
f 113/148/47 115/147/47 131/143/47
f 114/150/46 116/154/46 117/144/46
f 118/155/47 116/154/47 121/153/47
f 116/154/47 135/151/47 121/153/47
f 135/151/47 123/249/47 122/152/47
f 119/161/20 117/144/20 120/156/20
f 117/144/20 116/154/20 120/156/20
f 121/153/59 129/158/59 120/156/59
f 121/153/46 122/152/46 128/157/46
f 122/152/60 123/249/60 127/159/60
f 120/156/61 129/158/61 126/160/61
f 128/157/62 125/163/62 126/160/62
f 128/157/46 127/159/46 124/162/46
f 133/164/45 134/165/45 114/150/45
f 125/163/45 124/162/45 132/145/45
f 132/145/45 117/144/45 125/163/45
f 117/144/45 119/161/45 126/160/45
f 134/165/46 135/151/46 116/154/46
f 123/249/20 135/151/20 134/165/20
f 130/149/20 131/143/20 124/162/20
f 131/143/20 132/145/20 124/162/20
f 123/249/20 134/165/20 133/164/20
f 130/149/20 124/162/20 127/159/20
f 127/159/20 123/249/20 133/164/20
f 136/166/48 137/172/48 141/167/48
f 143/169/46 139/173/46 138/170/46
f 142/171/54 138/170/54 136/166/54
f 138/170/7 139/173/7 137/172/7
f 139/173/55 143/169/55 141/167/55
f 141/167/20 143/169/20 142/171/20
f 145/177/56 152/182/56 153/178/56
f 148/175/7 147/174/7 153/178/7
f 147/174/7 146/179/7 153/178/7
f 144/181/20 151/183/20 152/182/20
f 150/180/57 153/178/57 152/182/57
f 151/183/58 144/181/58 148/175/58
f 144/181/58 147/174/58 148/175/58
f 162/184/57 160/250/57 158/185/57
f 155/187/7 157/251/7 158/188/7
f 157/186/56 155/190/56 162/184/56
f 155/190/56 154/196/56 159/191/56
f 145/192/45 146/252/45 147/193/45
f 144/195/45 161/197/45 159/191/45
f 161/197/20 160/250/20 162/184/20
f 158/185/58 160/250/58 156/198/58
f 160/250/58 161/197/58 156/198/58
