# Blender v2.82 (sub 7) OBJ File: 'house1.blend'
# www.blender.org
v -0.278785 0.304300 -0.250000
v -0.217889 -0.014699 -0.250000
v -0.033715 0.020460 -0.250000
v -0.340424 0.127221 -0.250000
v -0.094611 0.339459 -0.250000
v 0.027924 0.197538 -0.250000
v -0.147580 0.662179 -0.266703
v -0.322791 0.388738 -0.266703
v -0.164920 0.287580 -0.266703
v -0.314121 0.576038 -0.266703
v 0.010291 0.561021 -0.266703
v 0.001621 0.373722 -0.266703
v -0.285097 0.923596 -0.241648
v -0.209793 0.607687 -0.241648
v -0.027403 0.651164 -0.241648
v -0.338640 0.743903 -0.241648
v -0.102707 0.967072 -0.241648
v 0.026140 0.830856 -0.241648
v 0.026140 0.830856 0.500000
v -0.102707 0.967072 0.500000
v -0.164920 0.287580 0.500000
v 0.001621 0.373722 0.500000
v 0.010291 0.561021 0.500000
v -0.147580 0.662179 0.500000
v -0.314121 0.576038 0.500000
v -0.322791 0.388738 0.500000
v 0.027924 0.197538 0.500000
v -0.340424 0.127221 0.500000
v -0.033715 0.020460 0.500000
v -0.217889 -0.014699 0.500000
v -0.094611 0.339459 0.500000
v -0.278785 0.304300 0.500000
v -0.209793 0.607687 0.500000
v -0.027403 0.651164 0.500000
v -0.338640 0.743903 0.500000
v -0.285097 0.923596 0.500000
v -0.187500 0.842790 0.147876
v -0.187500 0.604548 -0.072826
v -0.187500 0.731970 -0.210376
v -0.187500 0.970213 0.010326
v -0.187500 0.914803 -0.168799
v -0.187500 0.659958 0.106299
v -0.187500 0.194461 0.153485
v -0.187500 -0.013646 -0.095835
v -0.187500 0.130299 -0.215985
v -0.187500 0.338406 0.033334
v -0.187500 0.306325 -0.151401
v -0.187500 0.018435 0.088900
v -0.187500 0.595761 -0.174582
v -0.187500 0.538569 0.145102
v -0.187500 0.353999 0.112082
v -0.187500 0.411191 -0.207602
v -0.187500 0.290311 -0.064270
v -0.187500 0.659450 0.001770
v -0.187500 0.919006 -0.080654
v -0.187500 0.958735 -0.120000
v -0.173776 0.966658 0.100690
v 0.139507 1.147532 0.150093
v 0.370255 1.280754 0.018154
v -0.187500 0.958735 0.070537
v -0.025564 1.052228 -0.212594
v 0.287719 1.233102 -0.163190
v 0.500000 0.842790 0.147876
v 0.500000 0.970213 0.010326
v 0.500000 0.604548 -0.072826
v 0.500000 0.731970 -0.210376
v 0.500000 0.914803 -0.168799
v 0.500000 0.338406 0.033334
v 0.500000 0.290311 -0.064270
v 0.500000 0.595761 -0.174582
v 0.500000 0.130299 -0.215985
v 0.500000 0.194461 0.153485
v 0.500000 -0.013646 -0.095835
v 0.500000 0.353999 0.112082
v 0.500000 0.659450 0.001770
v 0.500000 0.538569 0.145102
v 0.500000 0.411191 -0.207602
v 0.500000 0.659958 0.106299
v 0.500000 0.018435 0.088900
v 0.500000 0.306325 -0.151401
v 0.500000 0.919006 -0.080654
v 0.500000 1.052228 -0.212594
v 0.500000 0.966658 0.100690
v 0.500000 1.233102 -0.163190
v 0.500000 1.147532 0.150094
v 0.500000 1.280754 0.018154
v 0.000000 0.062500 0.187500
v 0.375000 0.062500 0.187500
v 0.000000 0.312500 0.250000
v 0.000000 0.187500 0.250000
v 0.375000 0.187500 0.250000
v 0.000000 0.312500 0.187500
v 0.375000 0.312500 0.187500
v 0.375000 0.312500 0.250000
v 0.062500 0.062500 0.187500
v 0.312500 0.062500 0.187500
v 0.375000 0.062500 0.187500
v 0.000000 0.062500 0.187500
v 0.312500 0.062500 0.250000
v 0.062500 0.062500 0.250000
v 0.375000 0.062500 0.250000
v 0.000000 0.062500 0.250000
v 0.312500 0.000000 0.250000
v 0.375000 0.000000 0.250000
v 0.000000 0.000000 0.250000
v 0.062500 0.000000 0.250000
v 0.312500 0.000000 0.187500
v 0.062500 0.000000 0.187500
v 0.000000 0.000000 0.187500
v 0.375000 0.000000 0.187500
v 0.000000 0.187500 0.500000
v 0.375000 0.187500 0.500000
v 0.000000 0.062500 0.500000
v 0.375000 0.062500 0.500000
v 0.500000 1.355663 -0.187500
v 0.500000 1.500000 -0.187500
v 0.500000 1.500000 -0.312500
v 0.500000 1.355663 -0.312500
v -0.411779 0.829247 -0.312500
v 0.445873 1.324413 -0.312500
v -0.465905 0.797997 -0.312500
v -0.465905 0.797997 -0.187500
v -0.528405 0.906250 -0.187500
v -0.528405 0.906250 -0.312500
v 0.500000 1.427832 -0.187500
v -0.420152 0.896582 -0.187500
v -0.388902 0.842455 -0.187500
v -0.474279 0.865332 -0.187500
v -0.443029 0.811205 -0.187500
v 0.500000 1.427832 0.500000
v -0.443029 0.811205 0.500000
v 0.500000 1.355663 0.500000
v -0.474279 0.865332 0.500000
vt 0.541816 0.105568
vt 0.589849 0.077836
vt 0.637881 0.105568
vt 0.542303 0.161709
vt 0.590336 0.078514
vt 0.638369 0.161709
vt 0.637828 0.161031
vt 0.589796 0.188763
vt 0.541763 0.161031
vt 0.714170 0.557231
vt 0.936024 0.612695
vt 0.714170 0.612695
vt 0.714170 0.779085
vt 0.936024 0.834548
vt 0.714170 0.834548
vt 0.936024 0.668158
vt 0.714170 0.668158
vt 0.523557 0.503536
vt 0.296763 0.448073
vt 0.523557 0.448073
vt 0.420892 0.338246
vt 0.640275 0.393709
vt 0.420892 0.393709
vt 0.640275 0.449173
vt 0.420892 0.449173
vt 0.420892 0.282782
vt 0.640275 0.338246
vt 0.523557 0.281682
vt 0.296763 0.226219
vt 0.523557 0.226219
vt 0.640275 0.504636
vt 0.420892 0.504636
vt 0.523557 0.392609
vt 0.296763 0.337146
vt 0.523557 0.337146
vt 0.296763 0.392609
vt 0.714170 0.723621
vt 0.936024 0.779085
vt 0.638803 0.105568
vt 0.590771 0.188763
vt 0.542738 0.105568
vt 0.590039 0.077836
vt 0.638072 0.161031
vt 0.542007 0.161031
vt 0.637637 0.106246
vt 0.637637 0.161709
vt 0.589605 0.189441
vt 0.523557 0.558999
vt 0.296763 0.503536
vt 0.936024 0.723621
vt 0.420892 0.227319
vt 0.640275 0.282782
vt 0.640275 0.560099
vt 0.420892 0.560099
vt 0.296763 0.281683
vt 0.936024 0.890011
vt 0.714170 0.890011
vt 0.719655 0.778406
vt 0.923021 0.722943
vt 0.923021 0.778406
vt 0.923021 0.612016
vt 0.719655 0.556553
vt 0.923021 0.556553
vt 0.719655 0.833870
vt 0.923021 0.833870
vt 0.719655 0.667480
vt 0.923021 0.667480
vt 0.719655 0.612016
vt 0.719655 0.889333
vt 0.923021 0.889333
vt 0.217702 0.449173
vt 0.421068 0.393709
vt 0.421068 0.449173
vt 0.421068 0.282783
vt 0.217702 0.227319
vt 0.421068 0.227319
vt 0.217702 0.504636
vt 0.421068 0.504636
vt 0.217702 0.338246
vt 0.421068 0.338246
vt 0.217702 0.282783
vt 0.217702 0.560099
vt 0.421068 0.560100
vt 0.531516 0.449173
vt 0.328150 0.504636
vt 0.328150 0.449173
vt 0.328150 0.282782
vt 0.531516 0.338246
vt 0.328150 0.338246
vt 0.531516 0.393709
vt 0.328150 0.393709
vt 0.531516 0.560100
vt 0.328150 0.560100
vt 0.328150 0.227319
vt 0.531516 0.282782
vt 0.765119 0.274221
vt 0.609655 0.274221
vt 0.609654 0.218758
vt 0.609655 0.329685
vt 0.648034 0.385148
vt 0.609655 0.385148
vt 0.609655 0.440611
vt 0.716290 0.440611
vt 0.609655 0.496075
vt 0.672448 0.329685
vt 0.808961 0.496075
vt 0.813020 0.551538
vt 0.609655 0.551538
vt 0.197173 0.685017
vt 0.359217 0.685017
vt 0.197173 0.685017
vt 0.359217 0.671513
vt 0.197173 0.671513
vt 0.359217 0.671513
vt 0.197173 0.671513
vt 0.292649 0.802360
vt 0.272545 0.778896
vt 0.290784 0.799947
vt 0.251067 0.802360
vt 0.230962 0.778896
vt 0.249202 0.799947
vt 0.293334 0.798307
vt 0.313439 0.821771
vt 0.295199 0.800721
vt 0.272545 0.820687
vt 0.251752 0.798307
vt 0.271856 0.821771
vt 0.253617 0.800721
vt 0.271856 0.779981
vt 0.313439 0.779981
vt 0.230962 0.820687
vt 0.359217 0.617499
vt 0.359217 0.617499
vt 0.197173 0.617499
vt 0.197173 0.617499
vt 0.204398 0.667283
vt 0.204635 0.667281
vt 0.204635 0.667285
vt 0.500225 0.890925
vt 0.468916 0.577005
vt 0.500225 0.577006
vt 0.531534 0.874403
vt 0.531534 0.596083
vt 0.468916 0.890925
vt 0.437606 0.596083
vt 0.351103 0.815872
vt 0.314127 0.778896
vt 0.351103 0.778896
vt 0.562843 0.890925
vt 0.531534 0.890925
vt 0.978629 0.069953
vt 0.960141 0.273320
vt 0.960141 0.069953
vt 0.202424 0.326763
vt -0.000942 0.012471
vt 0.202424 -0.006017
vt 0.978629 0.595424
vt 0.960140 0.606098
vt 0.201675 0.022389
vt 0.201675 0.326007
vt -0.001691 0.326007
vt 0.637881 0.161031
vt 0.589849 0.188763
vt 0.541816 0.161031
vt 0.590336 0.189441
vt 0.542303 0.106246
vt 0.638369 0.106246
vt 0.541763 0.105568
vt 0.589795 0.077836
vt 0.637828 0.105568
vt 0.936024 0.557231
vt 0.590771 0.077836
vt 0.638803 0.161031
vt 0.542738 0.161031
vt 0.542007 0.105567
vt 0.638072 0.105568
vt 0.590039 0.188763
vt 0.541572 0.161709
vt 0.541572 0.106246
vt 0.589605 0.078514
vt 0.296763 0.558999
vt 0.640275 0.227319
vt 0.719655 0.722943
vt 0.217702 0.393709
vt 0.531516 0.504636
vt 0.531516 0.227319
vt 0.813020 0.218758
vt 0.813020 0.235298
vt 0.813020 0.505297
vt 0.359217 0.685017
vt 0.437606 0.890925
vt 0.314127 0.815872
vt 0.562843 0.596082
vt 0.978629 0.273320
vt -0.000942 0.326763
vt -0.000942 -0.006017
vt -0.001691 0.003901
vt 0.201675 0.003901
vn 0.0000 0.0000 -1.0000
vn 0.1875 -0.9823 0.0000
vn -0.9444 0.3287 0.0000
vn 0.9444 -0.3287 0.0000
vn 0.9989 -0.0462 0.0000
vn 0.7265 0.6872 0.0000
vn -0.2319 0.9727 0.0000
vn 0.9584 -0.2856 0.0000
vn -0.5395 -0.8420 0.0000
vn -0.9584 0.2856 0.0000
vn -0.4594 0.8882 0.0000
vn 0.5395 0.8420 0.0000
vn -0.1875 0.9823 0.0000
vn 0.0000 0.0000 1.0000
vn 0.4594 -0.8882 0.0000
vn 0.7569 0.6535 0.0000
vn 0.2319 -0.9727 0.0000
vn -0.7265 -0.6872 0.0000
vn -0.9989 0.0462 0.0000
vn -0.7569 -0.6535 0.0000
vn 0.0000 0.7336 0.6796
vn 0.0000 -0.7336 -0.6796
vn 0.0000 -0.2217 0.9751
vn 0.0000 0.9553 -0.2955
vn 0.0000 0.2217 -0.9751
vn 0.0000 -0.9553 0.2955
vn 0.0000 0.6408 0.7677
vn 0.0000 -0.6408 -0.7677
vn 0.0000 -0.3445 0.9388
vn 0.0000 0.9853 -0.1711
vn 0.0000 0.3445 -0.9388
vn 0.0000 -0.9853 0.1711
vn 0.0000 0.1761 -0.9844
vn 0.0000 -0.1761 0.9844
vn 0.0000 0.9405 -0.3397
vn 0.0000 -0.7644 -0.6447
vn 0.0000 -0.9405 0.3397
vn 0.0000 0.7644 0.6447
vn 0.0000 -0.7037 -0.7105
vn 0.0000 0.9672 -0.2541
vn -0.0000 0.7037 0.7105
vn -0.0000 -0.2635 0.9647
vn -0.0000 0.2635 -0.9647
vn -0.0000 -0.9672 0.2541
vn 0.0000 1.0000 0.0000
vn -1.0000 0.0000 0.0000
vn 1.0000 0.0000 0.0000
vn 0.0000 -1.0000 0.0000
vn -0.5000 0.8660 0.0000
vn -0.8660 -0.5000 0.0000
vn 0.5000 -0.8660 0.0000
s off
f 5/1/1 6/2/1 3/3/1
f 10/4/1 11/5/1 9/6/1
f 17/7/1 18/8/1 15/9/1
f 30/10/2 3/11/2 29/12/2
f 32/13/3 4/14/3 28/15/3
f 29/12/4 6/16/4 27/17/4
f 22/18/5 11/19/5 23/20/5
f 19/21/6 17/22/6 20/23/6
f 20/23/7 13/24/7 36/25/7
f 34/26/8 18/27/8 19/21/8
f 26/28/9 9/29/9 21/30/9
f 36/25/10 16/31/10 35/32/10
f 24/33/11 10/34/11 25/35/11
f 23/20/12 7/36/12 24/33/12
f 31/37/13 1/38/13 32/13/13
f 30/39/14 27/40/14 32/41/14
f 33/42/14 19/43/14 36/44/14
f 26/45/14 21/46/14 22/47/14
f 21/48/15 12/49/15 22/18/15
f 27/17/16 5/50/16 31/37/16
f 33/51/17 15/52/17 34/26/17
f 35/32/18 14/53/18 33/54/18
f 25/35/19 8/55/19 26/28/19
f 28/15/20 2/56/20 30/57/20
f 63/58/21 40/59/21 37/60/21
f 39/61/22 65/62/22 38/63/22
f 78/64/23 37/60/23 42/65/23
f 40/59/24 67/66/24 41/67/24
f 41/67/25 66/68/25 39/61/25
f 65/69/26 42/65/26 38/70/26
f 72/71/27 46/72/27 43/73/27
f 45/74/28 73/75/28 44/76/28
f 79/77/29 43/73/29 48/78/29
f 46/72/30 80/79/30 47/80/30
f 47/80/31 71/81/31 45/74/31
f 73/82/32 48/78/32 44/83/32
f 70/84/33 52/85/33 49/86/33
f 51/87/34 76/88/34 50/89/34
f 75/90/35 49/86/35 54/91/35
f 52/85/36 69/92/36 53/93/36
f 53/94/37 74/95/37 51/87/37
f 76/88/38 54/91/38 50/89/38
f 61/96/39 82/97/39 81/98/39
f 84/99/40 59/100/40 86/101/40
f 59/100/41 85/102/41 86/101/41
f 58/103/42 83/104/42 85/102/42
f 82/97/43 62/105/43 84/99/43
f 57/106/44 55/107/44 81/108/44
f 92/109/1 88/110/1 87/111/1
f 94/112/45 92/109/45 89/113/45
f 91/114/14 89/113/14 90/115/14
f 87/111/46 90/115/46 92/109/46
f 99/116/14 104/117/14 101/118/14
f 102/119/14 106/120/14 100/121/14
f 97/122/1 107/123/1 96/124/1
f 96/124/46 103/125/46 99/116/46
f 95/126/1 109/127/1 98/128/1
f 100/121/47 108/129/47 95/126/47
f 101/118/47 110/130/47 97/122/47
f 98/128/46 105/131/46 102/119/46
f 91/114/47 114/132/47 88/110/47
f 112/133/45 90/115/45 111/134/45
f 87/111/48 114/132/48 113/135/48
f 113/135/14 112/133/14 111/134/14
f 118/136/14 120/137/14 119/138/14
f 124/139/49 116/140/49 117/141/49
f 119/142/1 124/139/1 118/143/1
f 123/144/14 115/145/14 116/140/14
f 123/146/50 121/147/50 122/148/50
f 122/149/51 121/150/51 119/142/51
f 129/151/50 133/152/50 128/153/50
f 130/154/49 126/155/49 133/156/49
f 133/152/14 132/157/14 130/158/14
f 127/159/51 115/160/51 132/161/51
f 3/3/1 2/162/1 5/1/1
f 2/162/1 4/163/1 5/1/1
f 4/163/1 1/164/1 5/1/1
f 9/6/1 8/165/1 10/4/1
f 10/4/1 7/166/1 11/5/1
f 11/5/1 12/167/1 9/6/1
f 15/9/1 14/168/1 17/7/1
f 14/168/1 16/169/1 17/7/1
f 16/169/1 13/170/1 17/7/1
f 30/10/2 2/171/2 3/11/2
f 32/13/3 1/38/3 4/14/3
f 29/12/4 3/11/4 6/16/4
f 22/18/5 12/49/5 11/19/5
f 19/21/6 18/27/6 17/22/6
f 20/23/7 17/22/7 13/24/7
f 34/26/8 15/52/8 18/27/8
f 26/28/9 8/55/9 9/29/9
f 36/25/10 13/24/10 16/31/10
f 24/33/11 7/36/11 10/34/11
f 23/20/12 11/19/12 7/36/12
f 31/37/13 5/50/13 1/38/13
f 32/41/14 28/172/14 30/39/14
f 30/39/14 29/173/14 27/40/14
f 27/40/14 31/174/14 32/41/14
f 36/44/14 35/175/14 33/42/14
f 33/42/14 34/176/14 19/43/14
f 19/43/14 20/177/14 36/44/14
f 22/47/14 23/178/14 24/179/14
f 24/179/14 25/180/14 22/47/14
f 25/180/14 26/45/14 22/47/14
f 21/48/15 9/181/15 12/49/15
f 27/17/16 6/16/16 5/50/16
f 33/51/17 14/182/17 15/52/17
f 35/32/18 16/31/18 14/53/18
f 25/35/19 10/34/19 8/55/19
f 28/15/20 4/14/20 2/56/20
f 63/58/21 64/183/21 40/59/21
f 39/61/22 66/68/22 65/62/22
f 78/64/23 63/58/23 37/60/23
f 40/59/24 64/183/24 67/66/24
f 41/67/25 67/66/25 66/68/25
f 65/69/26 78/64/26 42/65/26
f 72/71/27 68/184/27 46/72/27
f 45/74/28 71/81/28 73/75/28
f 79/77/29 72/71/29 43/73/29
f 46/72/30 68/184/30 80/79/30
f 47/80/31 80/79/31 71/81/31
f 73/82/32 79/77/32 48/78/32
f 70/84/33 77/185/33 52/85/33
f 51/87/34 74/95/34 76/88/34
f 75/90/35 70/84/35 49/86/35
f 52/85/36 77/185/36 69/92/36
f 53/94/37 69/186/37 74/95/37
f 76/88/38 75/90/38 54/91/38
f 81/98/39 55/187/39 61/96/39
f 55/187/39 56/188/39 61/96/39
f 84/99/40 62/105/40 59/100/40
f 59/100/41 58/103/41 85/102/41
f 58/103/42 57/106/42 83/104/42
f 82/97/43 61/96/43 62/105/43
f 81/108/44 83/104/44 57/106/44
f 57/106/44 60/189/44 55/107/44
f 92/109/1 93/190/1 88/110/1
f 94/112/45 93/190/45 92/109/45
f 91/114/14 94/112/14 89/113/14
f 87/111/46 113/135/46 90/115/46
f 113/135/46 111/134/46 90/115/46
f 90/115/46 89/113/46 92/109/46
f 99/116/14 103/125/14 104/117/14
f 102/119/14 105/131/14 106/120/14
f 97/122/1 110/130/1 107/123/1
f 96/124/46 107/123/46 103/125/46
f 95/126/1 108/129/1 109/127/1
f 100/121/47 106/120/47 108/129/47
f 101/118/47 104/117/47 110/130/47
f 98/128/46 109/127/46 105/131/46
f 91/114/47 112/133/47 114/132/47
f 88/110/47 93/190/47 91/114/47
f 93/190/47 94/112/47 91/114/47
f 112/133/45 91/114/45 90/115/45
f 87/111/48 88/110/48 114/132/48
f 113/135/14 114/132/14 112/133/14
f 124/139/49 123/144/49 116/140/49
f 119/142/1 121/150/1 124/139/1
f 124/139/1 117/141/1 118/143/1
f 123/144/14 122/191/14 115/145/14
f 123/146/50 124/192/50 121/147/50
f 118/143/51 115/193/51 119/142/51
f 115/193/51 122/149/51 119/142/51
f 129/151/50 131/194/50 133/152/50
f 125/195/49 126/155/49 130/154/49
f 126/155/49 128/196/49 133/156/49
f 133/152/14 131/194/14 132/157/14
f 132/161/51 131/197/51 127/159/51
f 131/197/51 129/198/51 127/159/51
