# Blender v2.82 (sub 7) OBJ File: ''
# www.blender.org
v -0.500000 0.812500 0.000000
v -0.500000 0.750000 0.000000
v -0.187500 0.000000 -0.000000
v 0.250000 0.000000 -0.000000
v 0.500000 0.750000 0.000000
v 0.500000 0.812500 0.000000
v 0.250000 1.000000 0.000000
v -0.187500 1.000000 0.000000
v -0.437500 0.687500 0.000000
v -0.437500 0.750000 0.000000
v -0.437500 0.812500 0.000000
v -0.437500 0.875000 0.000000
v -0.375000 0.875000 0.000000
v -0.375000 0.937500 0.000000
v -0.312500 0.625000 0.000000
v -0.312500 0.687500 0.000000
v -0.250000 0.062500 -0.000000
v -0.250000 0.500000 0.000000
v -0.187500 0.062500 -0.000000
v -0.187500 0.500000 0.000000
v -0.187500 0.625000 0.000000
v -0.187500 0.937500 0.000000
v 0.187500 0.500000 0.000000
v 0.187500 0.625000 0.000000
v 0.250000 0.062500 -0.000000
v 0.250000 0.312500 -0.000000
v 0.250000 0.500000 0.000000
v 0.250000 0.625000 0.000000
v 0.250000 0.687500 0.000000
v 0.250000 0.937500 0.000000
v 0.312500 0.062500 -0.000000
v 0.312500 0.312500 -0.000000
v 0.375000 0.875000 0.000000
v 0.375000 0.937500 0.000000
v 0.437500 0.687500 0.000000
v 0.437500 0.750000 0.000000
v 0.437500 0.812500 0.000000
v 0.437500 0.875000 0.000000
vt 0.062500 0.812500
vt 0.062500 0.750000
vt 0.187500 0.687500
vt 0.937500 0.812500
vt 0.937500 0.875000
vt 0.875000 0.875000
vt 0.875000 0.937500
vt 0.750000 0.937500
vt 0.750000 1.000000
vt 0.312500 1.000000
vt 0.312500 0.937500
vt 0.125000 0.937500
vt 0.125000 0.875000
vt 0.937500 0.750000
vt 0.750000 0.687500
vt 1.000000 0.750000
vt 1.000000 0.812500
vt 0.937500 0.687500
vt 0.687500 0.625000
vt 0.062500 0.875000
vt 0.750000 0.625000
vt 0.750000 0.312500
vt 0.750000 0.500000
vt 0.687500 0.500000
vt 0.812500 0.062500
vt 0.812500 0.312500
vt 0.312500 0.000000
vt 0.750000 0.000000
vt 0.750000 0.062500
vt 0.312500 0.062500
vt 0.312500 0.500000
vt 0.250000 0.500000
vt 0.250000 0.062500
vt 0.312500 0.625000
vt 0.187500 0.625000
vt 0.062500 0.687500
vt 0.000000 0.812500
vt 0.000000 0.750000
vn 0.0000 -0.0000 1.0000
s off
f 11/1/1 10/2/1 16/3/1
f 37/4/1 38/5/1 33/6/1
f 33/6/1 34/7/1 30/8/1
f 30/8/1 7/9/1 8/10/1
f 22/11/1 14/12/1 13/13/1
f 30/8/1 8/10/1 22/11/1
f 37/4/1 33/6/1 36/14/1
f 33/6/1 30/8/1 29/15/1
f 5/16/1 6/17/1 37/4/1
f 29/15/1 35/18/1 36/14/1
f 36/14/1 5/16/1 37/4/1
f 33/6/1 29/15/1 36/14/1
f 30/8/1 22/11/1 24/19/1
f 29/15/1 30/8/1 24/19/1
f 13/13/1 12/20/1 11/1/1
f 22/11/1 13/13/1 16/3/1
f 24/19/1 28/21/1 29/15/1
f 26/22/1 27/23/1 23/24/1
f 31/25/1 32/26/1 26/22/1
f 3/27/1 4/28/1 25/29/1
f 25/29/1 31/25/1 26/22/1
f 25/29/1 26/22/1 19/30/1
f 26/22/1 23/24/1 20/31/1
f 19/30/1 26/22/1 20/31/1
f 19/30/1 3/27/1 25/29/1
f 18/32/1 17/33/1 19/30/1
f 20/31/1 18/32/1 19/30/1
f 23/24/1 24/19/1 20/31/1
f 21/34/1 20/31/1 24/19/1
f 16/3/1 15/35/1 21/34/1
f 10/2/1 9/36/1 16/3/1
f 1/37/1 2/38/1 10/2/1
f 13/13/1 11/1/1 16/3/1
f 22/11/1 16/3/1 21/34/1
f 11/1/1 1/37/1 10/2/1
f 21/34/1 24/19/1 22/11/1
