# Blender v2.82 (sub 7) OBJ File: 'skull.blend'
# www.blender.org
v -0.437500 -0.267361 -0.000000
v -0.437500 0.357639 0.000000
v -0.312500 -0.517361 -0.000000
v -0.312500 -0.267361 -0.000000
v -0.312500 -0.142361 -0.000000
v -0.312500 0.107639 0.000000
v -0.312500 0.357639 0.000000
v -0.312500 0.482639 0.000000
v -0.187500 -0.517361 -0.000000
v -0.187500 -0.392361 -0.000000
v -0.062500 -0.517361 -0.000000
v -0.062500 -0.392361 -0.000000
v -0.062500 -0.142361 -0.000000
v -0.062500 0.107639 0.000000
v 0.062500 -0.517361 -0.000000
v 0.062500 -0.392361 -0.000000
v 0.062500 -0.142361 -0.000000
v 0.062500 0.107639 0.000000
v 0.187500 -0.517361 -0.000000
v 0.187500 -0.392361 -0.000000
v 0.312500 -0.517361 -0.000000
v 0.312500 -0.267361 -0.000000
v 0.312500 -0.142361 -0.000000
v 0.312500 0.107639 0.000000
v 0.312500 0.357639 0.000000
v 0.312500 0.482639 0.000000
v 0.437500 -0.267361 -0.000000
v 0.437500 0.357639 0.000000
vt 0.562500 0.625000
vt 0.500000 0.500000
vt 0.562500 0.500000
vt 0.562500 0.312500
vt 0.500000 0.375000
vt 0.500000 0.312500
vt 0.687500 0.437500
vt 0.625000 0.375000
vt 0.375000 0.500000
vt 0.375000 0.625000
vt 0.312500 0.437500
vt 0.500000 0.625000
vt 0.562500 0.375000
vt 0.375000 0.437500
vt 0.375000 0.312500
vt 0.437500 0.375000
vt 0.437500 0.312500
vt 0.687500 0.500000
vt 0.625000 0.312500
vt 0.687500 0.312500
vt 0.375000 0.750000
vt 0.687500 0.750000
vt 0.687500 0.625000
vt 0.750000 0.437500
vt 0.750000 0.750000
vt 0.687500 0.812500
vt 0.375000 0.812500
vt 0.312500 0.750000
vn 0.0000 -0.0000 1.0000
s off
f 18/1/1 13/2/1 17/3/1
f 15/4/1 12/5/1 11/6/1
f 22/7/1 17/3/1 20/8/1
f 5/9/1 6/10/1 1/11/1
f 18/1/1 14/12/1 13/2/1
f 15/4/1 16/13/1 12/5/1
f 5/9/1 4/14/1 13/2/1
f 4/14/1 3/15/1 10/16/1
f 3/15/1 9/17/1 10/16/1
f 12/5/1 16/13/1 17/3/1
f 16/13/1 20/8/1 17/3/1
f 4/14/1 10/16/1 13/2/1
f 10/16/1 12/5/1 13/2/1
f 22/7/1 23/18/1 17/3/1
f 17/3/1 13/2/1 12/5/1
f 20/8/1 19/19/1 21/20/1
f 21/20/1 22/7/1 20/8/1
f 6/10/1 14/12/1 7/21/1
f 14/12/1 18/1/1 25/22/1
f 24/23/1 23/18/1 27/24/1
f 23/18/1 22/7/1 27/24/1
f 14/12/1 25/22/1 7/21/1
f 18/1/1 24/23/1 25/22/1
f 27/24/1 28/25/1 24/23/1
f 28/25/1 25/22/1 24/23/1
f 25/22/1 26/26/1 8/27/1
f 7/21/1 2/28/1 6/10/1
f 2/28/1 1/11/1 6/10/1
f 25/22/1 8/27/1 7/21/1
f 4/14/1 5/9/1 1/11/1
