# Blender v2.82 (sub 7) OBJ File: 'sword.blend'
# www.blender.org
v -0.062500 -0.375000 -0.000000
v 0.062500 -0.375000 -0.000000
v 0.062500 1.625000 0.000000
v -0.062500 1.625000 0.000000
v -0.312500 0.125000 0.000000
v -0.312500 0.250000 0.000000
v -0.187500 -0.000000 0.000000
v -0.187500 0.125000 0.000000
v -0.187500 0.250000 0.000000
v -0.062500 -0.000000 0.000000
v -0.062500 0.125000 0.000000
v 0.062500 -0.000000 0.000000
v 0.062500 0.125000 0.000000
v 0.187500 -0.000000 0.000000
v 0.187500 0.125000 0.000000
v 0.187500 0.250000 0.000000
v 0.312500 0.125000 0.000000
v 0.312500 0.250000 0.000000
vt 0.187500 0.250000
vt 0.000000 0.312500
vt 0.000000 0.250000
vt 0.375000 0.187500
vt 0.187500 0.187500
vt 0.562500 0.187500
vt 0.375000 0.000000
vt 0.562500 0.000000
vt 0.375000 0.250000
vt 0.562500 1.000000
vt 0.562500 0.250000
vt 0.750000 0.187500
vt 0.937500 0.250000
vt 0.750000 0.312500
vt 0.750000 0.250000
vt 0.187500 0.312500
vt 0.375000 1.000000
vt 0.937500 0.312500
vn 0.0000 -0.0000 1.0000
s off
f 8/1/1 6/2/1 5/3/1
f 10/4/1 8/1/1 7/5/1
f 12/6/1 1/7/1 2/8/1
f 12/6/1 11/9/1 10/4/1
f 3/10/1 11/9/1 13/11/1
f 14/12/1 13/11/1 12/6/1
f 17/13/1 16/14/1 15/15/1
f 8/1/1 9/16/1 6/2/1
f 10/4/1 11/9/1 8/1/1
f 12/6/1 10/4/1 1/7/1
f 12/6/1 13/11/1 11/9/1
f 3/10/1 4/17/1 11/9/1
f 14/12/1 15/15/1 13/11/1
f 17/13/1 18/18/1 16/14/1
